<!DOCTYPE svg PUBLIC "-//W3C//DTD SVG 1.1//EN" "http://www.w3.org/Graphics/SVG/1.1/DTD/svg11.dtd">
                <svg xmlns="http://www.w3.org/2000/svg" xmlns:xlink="http://www.w3.org/1999/xlink" 
                width="647" height="2762">
                
            <g>
                <rect x="50" y="80"
            width="453.4" height="30"
            style="fill:#fff; stroke:#444; stroke-width:1" />
                    
                <line x1="55" y1="80" x2="55" y2="110"
                style="fill:#fff; stroke:#444; stroke-width:1" />
                <line x1="498.4" y1="80" x2="498.4" y2="110"
                style="fill:#fff; stroke:#444; stroke-width:1" />
             
                <title>import from&apos;@gdbots/schemas/gdbots/ncr/enums/NodeStatus&apos;</title>
            <text x="70" y="100"
                font-family="monospace" font-size="13" fill="#222">
                <tspan x="70" y="100">import from&apos;@gdbots/schemas/gdbots/ncr/enums/NodeS...</tspan>
            </text>
                
            </g>
                <g>
                   <rect x="87" y="128.5"
            width="108" height="30"
            rx="2" ry="2"
            style="fill:#81d4fa; stroke:#444; stroke-width:1" />
                   <title>NodeStatus</title>
            <text x="102" y="148.5"
                font-family="monospace" font-size="13" fill="#222">
                <tspan x="102" y="148.5">NodeStatus</tspan>
            </text>
                   
                   
                </g>
            <g>
                <rect x="50" y="192"
            width="217.2" height="30"
            rx="3" ry="3"
            style="fill:#81d4fa; stroke:#444; stroke-width:1" />
                
                <line x1="267.2" y1="202" x2="272.2" y2="202"
                style="fill:#fff; stroke:#444; stroke-width:1" />
                
                <line x1="267.2" y1="212" x2="272.2" y2="212"
                style="fill:#fff; stroke:#444; stroke-width:1" />

                <path d="M272.2, 193 L292.2, 207 L272.2, 221 Z" 
        fill="#fff" stroke="#444" stroke-width="1" />
                             
                <title>export default  function</title>
            <text x="65" y="212"
                font-family="monospace" font-size="13" fill="#222">
                <tspan x="65" y="212">export default  function</tspan>
            </text>
                
            </g>
            <g>
                <rect x="87" y="240.5"
            width="447.8" height="30"
            style="fill:#a5d6a7; stroke:#444; stroke-width:1" />
                    
                <line x1="97" y1="240.5" x2="97" y2="270.5"
                style="fill:#a5d6a7; stroke:#444; stroke-width:1" />
                <line x1="524.8" y1="240.5" x2="524.8" y2="270.5"
                style="fill:#a5d6a7; stroke:#444; stroke-width:1" />
             
                <title>(nodeStatus, {
  isPublishNodeGranted,
  isUnpublishNodeGranted,
  isMarkNodeAsDraftGranted,
  isMarkNodeAsPendingGranted
}) =&gt;</title>
            <text x="112" y="260.5"
                font-family="monospace" font-size="13" fill="#222">
                <tspan x="112" y="260.5">(nodeStatus, {
  isPublishNodeGranted,
  isUnpubli...</tspan>
            </text>
                
            </g>
                <g>
                   <rect x="124" y="289"
            width="342" height="30"
            rx="3" ry="3"
            style="fill:#90caf9; stroke:#444; stroke-width:1" />
                   <title>const defaultNodeOperationStatuses = {*}</title>
            <text x="139" y="309"
                font-family="monospace" font-size="13" fill="#222">
                <tspan x="139" y="309">const defaultNodeOperationStatuses = {*}</tspan>
            </text>
                   
                   
                </g>
                <g>
                   <rect x="161" y="337.5"
            width="162.6" height="30"
            rx="2" ry="2"
            style="fill:#90caf9; stroke:#444; stroke-width:1" />
                   <title>canPublish: false</title>
            <text x="176" y="357.5"
                font-family="monospace" font-size="13" fill="#222">
                <tspan x="176" y="357.5">canPublish: false</tspan>
            </text>
                   
                   
                </g>
                <g>
                   <rect x="161" y="386"
            width="178.2" height="30"
            rx="2" ry="2"
            style="fill:#90caf9; stroke:#444; stroke-width:1" />
                   <title>canUnpublish: false</title>
            <text x="176" y="406"
                font-family="monospace" font-size="13" fill="#222">
                <tspan x="176" y="406">canUnpublish: false</tspan>
            </text>
                   
                   
                </g>
                <g>
                   <rect x="161" y="434.5"
            width="209.4" height="30"
            rx="2" ry="2"
            style="fill:#90caf9; stroke:#444; stroke-width:1" />
                   <title>canMarkAsPending: false</title>
            <text x="176" y="454.5"
                font-family="monospace" font-size="13" fill="#222">
                <tspan x="176" y="454.5">canMarkAsPending: false</tspan>
            </text>
                   
                   
                </g>
                <g>
                   <rect x="161" y="483"
            width="193.79999999999998" height="30"
            rx="2" ry="2"
            style="fill:#90caf9; stroke:#444; stroke-width:1" />
                   <title>canMarkAsDraft: false</title>
            <text x="176" y="503"
                font-family="monospace" font-size="13" fill="#222">
                <tspan x="176" y="503">canMarkAsDraft: false</tspan>
            </text>
                   
                   
                </g><g>
            <rect x="154" y="546.5"
            width="317.4" height="30"
            rx="3" ry="3"
            style="fill:#ce93d8; stroke:#444; stroke-width:1" />                
            <polygon points="124,561.5 154,531.5 184,561.5 154,591.5"
            style="fill:#ce93d8; stroke:#444; stroke-width:1" />
            <title>(nodeStatus === NodeStatus.DRAFT)</title>
            <text x="199" y="566.5"
                font-family="monospace" font-size="13" fill="#222">
                <tspan x="199" y="566.5">(nodeStatus === NodeStatus.DRAFT)</tspan>
            </text>
            
            <text x="146.2" y="566.5"
        font-family="monospace" font-size="13" fill="#222">if</text> <text x="161.8" y="593.45"
        font-family="monospace" font-size="13" fill="#222">+</text> 
        </g>
            <g>
                <rect x="174" y="601.5"
            width="76.8" height="30"
            rx="3" ry="3"
            style="fill:#90caf9; stroke:#444; stroke-width:1" />
                
                <line x1="250.8" y1="611.5" x2="255.8" y2="611.5"
                style="fill:#a5d6a7; stroke:#444; stroke-width:1" />
                
                <line x1="250.8" y1="621.5" x2="255.8" y2="621.5"
                style="fill:#a5d6a7; stroke:#444; stroke-width:1" />

                <path d="M255.8, 605.5 L271.8, 616.5 L255.8, 627.5 Z" 
        fill="#a5d6a7" stroke="#444" stroke-width="1" />
                             
                <title>return</title>
            <text x="189" y="621.5"
                font-family="monospace" font-size="13" fill="#222">
                <tspan x="189" y="621.5">return</tspan>
            </text>
                
            </g>
                <g>
                   <rect x="211" y="650"
            width="53.4" height="30"
            rx="3" ry="3"
            style="fill:#90caf9; stroke:#444; stroke-width:1" />
                   <title>{*}</title>
            <text x="226" y="670"
                font-family="monospace" font-size="13" fill="#222">
                <tspan x="226" y="670">{*}</tspan>
            </text>
                   
                   
                </g>
                <g>
                   <rect x="248" y="698.5"
            width="279.6" height="30"
            rx="2" ry="2"
            style="fill:#90caf9; stroke:#444; stroke-width:1" />
                   <title>canPublish: isPublishNodeGranted</title>
            <text x="263" y="718.5"
                font-family="monospace" font-size="13" fill="#222">
                <tspan x="263" y="718.5">canPublish: isPublishNodeGranted</tspan>
            </text>
                   
                   
                </g>
                <g>
                   <rect x="248" y="747"
            width="178.2" height="30"
            rx="2" ry="2"
            style="fill:#90caf9; stroke:#444; stroke-width:1" />
                   <title>canUnpublish: false</title>
            <text x="263" y="767"
                font-family="monospace" font-size="13" fill="#222">
                <tspan x="263" y="767">canUnpublish: false</tspan>
            </text>
                   
                   
                </g>
                <g>
                   <rect x="248" y="795.5"
            width="373.2" height="30"
            rx="2" ry="2"
            style="fill:#90caf9; stroke:#444; stroke-width:1" />
                   <title>canMarkAsPending: isMarkNodeAsPendingGranted</title>
            <text x="263" y="815.5"
                font-family="monospace" font-size="13" fill="#222">
                <tspan x="263" y="815.5">canMarkAsPending: isMarkNodeAsPendingGranted</tspan>
            </text>
                   
                   
                </g>
                <g>
                   <rect x="248" y="844"
            width="193.79999999999998" height="30"
            rx="2" ry="2"
            style="fill:#90caf9; stroke:#444; stroke-width:1" />
                   <title>canMarkAsDraft: false</title>
            <text x="263" y="864"
                font-family="monospace" font-size="13" fill="#222">
                <tspan x="263" y="864">canMarkAsDraft: false</tspan>
            </text>
                   
                   
                </g><g>
            <rect x="154" y="909"
            width="348.59999999999997" height="30"
            rx="3" ry="3"
            style="fill:#ce93d8; stroke:#444; stroke-width:1" />                
            <polygon points="124,924 154,894 184,924 154,954"
            style="fill:#ce93d8; stroke:#444; stroke-width:1" />
            <title>(nodeStatus === NodeStatus.PUBLISHED)</title>
            <text x="199" y="929"
                font-family="monospace" font-size="13" fill="#222">
                <tspan x="199" y="929">(nodeStatus === NodeStatus.PUBLISHED)</tspan>
            </text>
            
            <text x="146.2" y="929"
        font-family="monospace" font-size="13" fill="#222">if</text> <text x="161.8" y="955.95"
        font-family="monospace" font-size="13" fill="#222">+</text> 
        </g>
            <g>
                <rect x="174" y="964"
            width="76.8" height="30"
            rx="3" ry="3"
            style="fill:#90caf9; stroke:#444; stroke-width:1" />
                
                <line x1="250.8" y1="974" x2="255.8" y2="974"
                style="fill:#a5d6a7; stroke:#444; stroke-width:1" />
                
                <line x1="250.8" y1="984" x2="255.8" y2="984"
                style="fill:#a5d6a7; stroke:#444; stroke-width:1" />

                <path d="M255.8, 968 L271.8, 979 L255.8, 990 Z" 
        fill="#a5d6a7" stroke="#444" stroke-width="1" />
                             
                <title>return</title>
            <text x="189" y="984"
                font-family="monospace" font-size="13" fill="#222">
                <tspan x="189" y="984">return</tspan>
            </text>
                
            </g>
                <g>
                   <rect x="211" y="1012.5"
            width="53.4" height="30"
            rx="3" ry="3"
            style="fill:#90caf9; stroke:#444; stroke-width:1" />
                   <title>{*}</title>
            <text x="226" y="1032.5"
                font-family="monospace" font-size="13" fill="#222">
                <tspan x="226" y="1032.5">{*}</tspan>
            </text>
                   
                   
                </g>
                <g>
                   <rect x="248" y="1061"
            width="162.6" height="30"
            rx="2" ry="2"
            style="fill:#90caf9; stroke:#444; stroke-width:1" />
                   <title>canPublish: false</title>
            <text x="263" y="1081"
                font-family="monospace" font-size="13" fill="#222">
                <tspan x="263" y="1081">canPublish: false</tspan>
            </text>
                   
                   
                </g>
                <g>
                   <rect x="248" y="1109.5"
            width="310.8" height="30"
            rx="2" ry="2"
            style="fill:#90caf9; stroke:#444; stroke-width:1" />
                   <title>canUnpublish: isUnpublishNodeGranted</title>
            <text x="263" y="1129.5"
                font-family="monospace" font-size="13" fill="#222">
                <tspan x="263" y="1129.5">canUnpublish: isUnpublishNodeGranted</tspan>
            </text>
                   
                   
                </g>
                <g>
                   <rect x="248" y="1158"
            width="209.4" height="30"
            rx="2" ry="2"
            style="fill:#90caf9; stroke:#444; stroke-width:1" />
                   <title>canMarkAsPending: false</title>
            <text x="263" y="1178"
                font-family="monospace" font-size="13" fill="#222">
                <tspan x="263" y="1178">canMarkAsPending: false</tspan>
            </text>
                   
                   
                </g>
                <g>
                   <rect x="248" y="1206.5"
            width="193.79999999999998" height="30"
            rx="2" ry="2"
            style="fill:#90caf9; stroke:#444; stroke-width:1" />
                   <title>canMarkAsDraft: false</title>
            <text x="263" y="1226.5"
                font-family="monospace" font-size="13" fill="#222">
                <tspan x="263" y="1226.5">canMarkAsDraft: false</tspan>
            </text>
                   
                   
                </g><g>
            <rect x="154" y="1271.5"
            width="333" height="30"
            rx="3" ry="3"
            style="fill:#ce93d8; stroke:#444; stroke-width:1" />                
            <polygon points="124,1286.5 154,1256.5 184,1286.5 154,1316.5"
            style="fill:#ce93d8; stroke:#444; stroke-width:1" />
            <title>(nodeStatus === NodeStatus.DELETED)</title>
            <text x="199" y="1291.5"
                font-family="monospace" font-size="13" fill="#222">
                <tspan x="199" y="1291.5">(nodeStatus === NodeStatus.DELETED)</tspan>
            </text>
            
            <text x="146.2" y="1291.5"
        font-family="monospace" font-size="13" fill="#222">if</text> <text x="161.8" y="1318.45"
        font-family="monospace" font-size="13" fill="#222">+</text> 
        </g>
            <g>
                <rect x="174" y="1326.5"
            width="76.8" height="30"
            rx="3" ry="3"
            style="fill:#90caf9; stroke:#444; stroke-width:1" />
                
                <line x1="250.8" y1="1336.5" x2="255.8" y2="1336.5"
                style="fill:#a5d6a7; stroke:#444; stroke-width:1" />
                
                <line x1="250.8" y1="1346.5" x2="255.8" y2="1346.5"
                style="fill:#a5d6a7; stroke:#444; stroke-width:1" />

                <path d="M255.8, 1330.5 L271.8, 1341.5 L255.8, 1352.5 Z" 
        fill="#a5d6a7" stroke="#444" stroke-width="1" />
                             
                <title>return</title>
            <text x="189" y="1346.5"
                font-family="monospace" font-size="13" fill="#222">
                <tspan x="189" y="1346.5">return</tspan>
            </text>
                
            </g>
                <g>
                   <rect x="211" y="1375"
            width="53.4" height="30"
            rx="3" ry="3"
            style="fill:#90caf9; stroke:#444; stroke-width:1" />
                   <title>{*}</title>
            <text x="226" y="1395"
                font-family="monospace" font-size="13" fill="#222">
                <tspan x="226" y="1395">{*}</tspan>
            </text>
                   
                   
                </g>
                <g>
                   <rect x="248" y="1423.5"
            width="162.6" height="30"
            rx="2" ry="2"
            style="fill:#90caf9; stroke:#444; stroke-width:1" />
                   <title>canPublish: false</title>
            <text x="263" y="1443.5"
                font-family="monospace" font-size="13" fill="#222">
                <tspan x="263" y="1443.5">canPublish: false</tspan>
            </text>
                   
                   
                </g>
                <g>
                   <rect x="248" y="1472"
            width="178.2" height="30"
            rx="2" ry="2"
            style="fill:#90caf9; stroke:#444; stroke-width:1" />
                   <title>canUnpublish: false</title>
            <text x="263" y="1492"
                font-family="monospace" font-size="13" fill="#222">
                <tspan x="263" y="1492">canUnpublish: false</tspan>
            </text>
                   
                   
                </g>
                <g>
                   <rect x="248" y="1520.5"
            width="209.4" height="30"
            rx="2" ry="2"
            style="fill:#90caf9; stroke:#444; stroke-width:1" />
                   <title>canMarkAsPending: false</title>
            <text x="263" y="1540.5"
                font-family="monospace" font-size="13" fill="#222">
                <tspan x="263" y="1540.5">canMarkAsPending: false</tspan>
            </text>
                   
                   
                </g>
                <g>
                   <rect x="248" y="1569"
            width="342" height="30"
            rx="2" ry="2"
            style="fill:#90caf9; stroke:#444; stroke-width:1" />
                   <title>canMarkAsDraft: isMarkNodeAsDraftGranted</title>
            <text x="263" y="1589"
                font-family="monospace" font-size="13" fill="#222">
                <tspan x="263" y="1589">canMarkAsDraft: isMarkNodeAsDraftGranted</tspan>
            </text>
                   
                   
                </g><g>
            <rect x="154" y="1634"
            width="348.59999999999997" height="30"
            rx="3" ry="3"
            style="fill:#ce93d8; stroke:#444; stroke-width:1" />                
            <polygon points="124,1649 154,1619 184,1649 154,1679"
            style="fill:#ce93d8; stroke:#444; stroke-width:1" />
            <title>(nodeStatus === NodeStatus.SCHEDULED)</title>
            <text x="199" y="1654"
                font-family="monospace" font-size="13" fill="#222">
                <tspan x="199" y="1654">(nodeStatus === NodeStatus.SCHEDULED)</tspan>
            </text>
            
            <text x="146.2" y="1654"
        font-family="monospace" font-size="13" fill="#222">if</text> <text x="161.8" y="1680.95"
        font-family="monospace" font-size="13" fill="#222">+</text> 
        </g>
            <g>
                <rect x="174" y="1689"
            width="76.8" height="30"
            rx="3" ry="3"
            style="fill:#90caf9; stroke:#444; stroke-width:1" />
                
                <line x1="250.8" y1="1699" x2="255.8" y2="1699"
                style="fill:#a5d6a7; stroke:#444; stroke-width:1" />
                
                <line x1="250.8" y1="1709" x2="255.8" y2="1709"
                style="fill:#a5d6a7; stroke:#444; stroke-width:1" />

                <path d="M255.8, 1693 L271.8, 1704 L255.8, 1715 Z" 
        fill="#a5d6a7" stroke="#444" stroke-width="1" />
                             
                <title>return</title>
            <text x="189" y="1709"
                font-family="monospace" font-size="13" fill="#222">
                <tspan x="189" y="1709">return</tspan>
            </text>
                
            </g>
                <g>
                   <rect x="211" y="1737.5"
            width="53.4" height="30"
            rx="3" ry="3"
            style="fill:#90caf9; stroke:#444; stroke-width:1" />
                   <title>{*}</title>
            <text x="226" y="1757.5"
                font-family="monospace" font-size="13" fill="#222">
                <tspan x="226" y="1757.5">{*}</tspan>
            </text>
                   
                   
                </g>
                <g>
                   <rect x="248" y="1786"
            width="279.6" height="30"
            rx="2" ry="2"
            style="fill:#90caf9; stroke:#444; stroke-width:1" />
                   <title>canPublish: isPublishNodeGranted</title>
            <text x="263" y="1806"
                font-family="monospace" font-size="13" fill="#222">
                <tspan x="263" y="1806">canPublish: isPublishNodeGranted</tspan>
            </text>
                   
                   
                </g>
                <g>
                   <rect x="248" y="1834.5"
            width="178.2" height="30"
            rx="2" ry="2"
            style="fill:#90caf9; stroke:#444; stroke-width:1" />
                   <title>canUnpublish: false</title>
            <text x="263" y="1854.5"
                font-family="monospace" font-size="13" fill="#222">
                <tspan x="263" y="1854.5">canUnpublish: false</tspan>
            </text>
                   
                   
                </g>
                <g>
                   <rect x="248" y="1883"
            width="373.2" height="30"
            rx="2" ry="2"
            style="fill:#90caf9; stroke:#444; stroke-width:1" />
                   <title>canMarkAsPending: isMarkNodeAsPendingGranted</title>
            <text x="263" y="1903"
                font-family="monospace" font-size="13" fill="#222">
                <tspan x="263" y="1903">canMarkAsPending: isMarkNodeAsPendingGranted</tspan>
            </text>
                   
                   
                </g>
                <g>
                   <rect x="248" y="1931.5"
            width="342" height="30"
            rx="2" ry="2"
            style="fill:#90caf9; stroke:#444; stroke-width:1" />
                   <title>canMarkAsDraft: isMarkNodeAsDraftGranted</title>
            <text x="263" y="1951.5"
                font-family="monospace" font-size="13" fill="#222">
                <tspan x="263" y="1951.5">canMarkAsDraft: isMarkNodeAsDraftGranted</tspan>
            </text>
                   
                   
                </g><g>
            <rect x="154" y="1996.5"
            width="333" height="30"
            rx="3" ry="3"
            style="fill:#ce93d8; stroke:#444; stroke-width:1" />                
            <polygon points="124,2011.5 154,1981.5 184,2011.5 154,2041.5"
            style="fill:#ce93d8; stroke:#444; stroke-width:1" />
            <title>(nodeStatus === NodeStatus.PENDING)</title>
            <text x="199" y="2016.5"
                font-family="monospace" font-size="13" fill="#222">
                <tspan x="199" y="2016.5">(nodeStatus === NodeStatus.PENDING)</tspan>
            </text>
            
            <text x="146.2" y="2016.5"
        font-family="monospace" font-size="13" fill="#222">if</text> <text x="161.8" y="2043.45"
        font-family="monospace" font-size="13" fill="#222">+</text> 
        </g>
            <g>
                <rect x="174" y="2051.5"
            width="76.8" height="30"
            rx="3" ry="3"
            style="fill:#90caf9; stroke:#444; stroke-width:1" />
                
                <line x1="250.8" y1="2061.5" x2="255.8" y2="2061.5"
                style="fill:#a5d6a7; stroke:#444; stroke-width:1" />
                
                <line x1="250.8" y1="2071.5" x2="255.8" y2="2071.5"
                style="fill:#a5d6a7; stroke:#444; stroke-width:1" />

                <path d="M255.8, 2055.5 L271.8, 2066.5 L255.8, 2077.5 Z" 
        fill="#a5d6a7" stroke="#444" stroke-width="1" />
                             
                <title>return</title>
            <text x="189" y="2071.5"
                font-family="monospace" font-size="13" fill="#222">
                <tspan x="189" y="2071.5">return</tspan>
            </text>
                
            </g>
                <g>
                   <rect x="211" y="2100"
            width="53.4" height="30"
            rx="3" ry="3"
            style="fill:#90caf9; stroke:#444; stroke-width:1" />
                   <title>{*}</title>
            <text x="226" y="2120"
                font-family="monospace" font-size="13" fill="#222">
                <tspan x="226" y="2120">{*}</tspan>
            </text>
                   
                   
                </g>
                <g>
                   <rect x="248" y="2148.5"
            width="279.6" height="30"
            rx="2" ry="2"
            style="fill:#90caf9; stroke:#444; stroke-width:1" />
                   <title>canPublish: isPublishNodeGranted</title>
            <text x="263" y="2168.5"
                font-family="monospace" font-size="13" fill="#222">
                <tspan x="263" y="2168.5">canPublish: isPublishNodeGranted</tspan>
            </text>
                   
                   
                </g>
                <g>
                   <rect x="248" y="2197"
            width="178.2" height="30"
            rx="2" ry="2"
            style="fill:#90caf9; stroke:#444; stroke-width:1" />
                   <title>canUnpublish: false</title>
            <text x="263" y="2217"
                font-family="monospace" font-size="13" fill="#222">
                <tspan x="263" y="2217">canUnpublish: false</tspan>
            </text>
                   
                   
                </g>
                <g>
                   <rect x="248" y="2245.5"
            width="209.4" height="30"
            rx="2" ry="2"
            style="fill:#90caf9; stroke:#444; stroke-width:1" />
                   <title>canMarkAsPending: false</title>
            <text x="263" y="2265.5"
                font-family="monospace" font-size="13" fill="#222">
                <tspan x="263" y="2265.5">canMarkAsPending: false</tspan>
            </text>
                   
                   
                </g>
                <g>
                   <rect x="248" y="2294"
            width="342" height="30"
            rx="2" ry="2"
            style="fill:#90caf9; stroke:#444; stroke-width:1" />
                   <title>canMarkAsDraft: isMarkNodeAsDraftGranted</title>
            <text x="263" y="2314"
                font-family="monospace" font-size="13" fill="#222">
                <tspan x="263" y="2314">canMarkAsDraft: isMarkNodeAsDraftGranted</tspan>
            </text>
                   
                   
                </g><g>
            <rect x="154" y="2359"
            width="333" height="30"
            rx="3" ry="3"
            style="fill:#ce93d8; stroke:#444; stroke-width:1" />                
            <polygon points="124,2374 154,2344 184,2374 154,2404"
            style="fill:#ce93d8; stroke:#444; stroke-width:1" />
            <title>(nodeStatus === NodeStatus.EXPIRED)</title>
            <text x="199" y="2379"
                font-family="monospace" font-size="13" fill="#222">
                <tspan x="199" y="2379">(nodeStatus === NodeStatus.EXPIRED)</tspan>
            </text>
            
            <text x="146.2" y="2379"
        font-family="monospace" font-size="13" fill="#222">if</text> <text x="161.8" y="2405.95"
        font-family="monospace" font-size="13" fill="#222">+</text> 
        </g>
            <g>
                <rect x="174" y="2414"
            width="76.8" height="30"
            rx="3" ry="3"
            style="fill:#90caf9; stroke:#444; stroke-width:1" />
                
                <line x1="250.8" y1="2424" x2="255.8" y2="2424"
                style="fill:#a5d6a7; stroke:#444; stroke-width:1" />
                
                <line x1="250.8" y1="2434" x2="255.8" y2="2434"
                style="fill:#a5d6a7; stroke:#444; stroke-width:1" />

                <path d="M255.8, 2418 L271.8, 2429 L255.8, 2440 Z" 
        fill="#a5d6a7" stroke="#444" stroke-width="1" />
                             
                <title>return</title>
            <text x="189" y="2434"
                font-family="monospace" font-size="13" fill="#222">
                <tspan x="189" y="2434">return</tspan>
            </text>
                
            </g>
                <g>
                   <rect x="211" y="2462.5"
            width="53.4" height="30"
            rx="3" ry="3"
            style="fill:#90caf9; stroke:#444; stroke-width:1" />
                   <title>{*}</title>
            <text x="226" y="2482.5"
                font-family="monospace" font-size="13" fill="#222">
                <tspan x="226" y="2482.5">{*}</tspan>
            </text>
                   
                   
                </g>
                <g>
                   <rect x="248" y="2511"
            width="162.6" height="30"
            rx="2" ry="2"
            style="fill:#90caf9; stroke:#444; stroke-width:1" />
                   <title>canPublish: false</title>
            <text x="263" y="2531"
                font-family="monospace" font-size="13" fill="#222">
                <tspan x="263" y="2531">canPublish: false</tspan>
            </text>
                   
                   
                </g>
                <g>
                   <rect x="248" y="2559.5"
            width="178.2" height="30"
            rx="2" ry="2"
            style="fill:#90caf9; stroke:#444; stroke-width:1" />
                   <title>canUnpublish: false</title>
            <text x="263" y="2579.5"
                font-family="monospace" font-size="13" fill="#222">
                <tspan x="263" y="2579.5">canUnpublish: false</tspan>
            </text>
                   
                   
                </g>
                <g>
                   <rect x="248" y="2608"
            width="209.4" height="30"
            rx="2" ry="2"
            style="fill:#90caf9; stroke:#444; stroke-width:1" />
                   <title>canMarkAsPending: false</title>
            <text x="263" y="2628"
                font-family="monospace" font-size="13" fill="#222">
                <tspan x="263" y="2628">canMarkAsPending: false</tspan>
            </text>
                   
                   
                </g>
                <g>
                   <rect x="248" y="2656.5"
            width="342" height="30"
            rx="2" ry="2"
            style="fill:#90caf9; stroke:#444; stroke-width:1" />
                   <title>canMarkAsDraft: isMarkNodeAsDraftGranted</title>
            <text x="263" y="2676.5"
                font-family="monospace" font-size="13" fill="#222">
                <tspan x="263" y="2676.5">canMarkAsDraft: isMarkNodeAsDraftGranted</tspan>
            </text>
                   
                   
                </g>
            <g>
                <rect x="124" y="2706.5"
            width="303" height="30"
            rx="3" ry="3"
            style="fill:#90caf9; stroke:#444; stroke-width:1" />
                
                <line x1="427" y1="2716.5" x2="432" y2="2716.5"
                style="fill:#a5d6a7; stroke:#444; stroke-width:1" />
                
                <line x1="427" y1="2726.5" x2="432" y2="2726.5"
                style="fill:#a5d6a7; stroke:#444; stroke-width:1" />

                <path d="M432, 2710.5 L448, 2721.5 L432, 2732.5 Z" 
        fill="#a5d6a7" stroke="#444" stroke-width="1" />
                             
                <title>return defaultNodeOperationStatuses</title>
            <text x="139" y="2726.5"
                font-family="monospace" font-size="13" fill="#222">
                <tspan x="139" y="2726.5">return defaultNodeOperationStatuses</tspan>
            </text>
                
            </g>
            <g>
               <rect x="25" y="13.75"
            width="216.6" height="24"
            style="fill:#fff59d; stroke:#444; stroke-width:1" />
               <circle cx="25" cy="25" r="15"
        style="fill:#fff59d; stroke:#444; stroke-width:1" />
               <title>Program: source module</title>
            <text x="55" y="30"
                font-family="monospace" font-size="13" fill="#222">
                <tspan x="55" y="30">Program: source module</tspan>
            </text>
            </g>
            <g>
               <path d="M25, 40 L25 91 Q25 95
                29 95
                L42 95 "
        style="fill:none; stroke:#444; stroke-width:1" />
               <path d="M42, 92 L50, 95 L42, 98 Z" 
        fill="#333" />
            </g>
            <g>
               <path d="M68.5, 110 L68.5 139.5 Q68.5 143.5
                72.5 143.5
                L87 143.5 "
        style="fill:none; stroke:#444; stroke-width:1" />
               false
            </g>
            <g>
               <path d="M25, 40 L25 203 Q25 207
                29 207
                L42 207 "
        style="fill:none; stroke:#444; stroke-width:1" />
               <path d="M42, 204 L50, 207 L42, 210 Z" 
        fill="#333" />
            </g>
            <g>
               <path d="M68.5, 222 L68.5 251.5 Q68.5 255.5
                72.5 255.5
                L79 255.5 "
        style="fill:none; stroke:#444; stroke-width:1" />
               <path d="M79, 252.5 L87, 255.5 L79, 258.5 Z" 
        fill="#333" />
            </g>
            <g>
               <path d="M105.5, 270.5 L105.5 300 Q105.5 304
                109.5 304
                L116 304 "
        style="fill:none; stroke:#444; stroke-width:1" />
               <path d="M116, 301 L124, 304 L116, 307 Z" 
        fill="#333" />
            </g>
            <g>
               <path d="M142.5, 319 L142.5 348.5 Q142.5 352.5
                146.5 352.5
                L161 352.5 "
        style="fill:none; stroke:#444; stroke-width:1" />
               false
            </g>
            <g>
               <path d="M142.5, 319 L142.5 397 Q142.5 401
                146.5 401
                L161 401 "
        style="fill:none; stroke:#444; stroke-width:1" />
               false
            </g>
            <g>
               <path d="M142.5, 319 L142.5 445.5 Q142.5 449.5
                146.5 449.5
                L161 449.5 "
        style="fill:none; stroke:#444; stroke-width:1" />
               false
            </g>
            <g>
               <path d="M142.5, 319 L142.5 494 Q142.5 498
                146.5 498
                L161 498 "
        style="fill:none; stroke:#444; stroke-width:1" />
               false
            </g>
            <g>
               <path d="M105.5, 270.5 L105.5 557.5 Q105.5 561.5
                109.5 561.5
                L116 561.5 "
        style="fill:none; stroke:#444; stroke-width:1" />
               <path d="M116, 558.5 L124, 561.5 L116, 564.5 Z" 
        fill="#333" />
            </g>
            <g>
               <path d="M154, 591.5 L154 612.5 Q154 616.5
                158 616.5
                L166 616.5 "
        style="fill:none; stroke:#444; stroke-width:1" />
               <path d="M166, 613.5 L174, 616.5 L166, 619.5 Z" 
        fill="#333" />
            </g>
            <g>
               <path d="M192.5, 631.5 L192.5 661 Q192.5 665
                196.5 665
                L203 665 "
        style="fill:none; stroke:#444; stroke-width:1" />
               <path d="M203, 662 L211, 665 L203, 668 Z" 
        fill="#333" />
            </g>
            <g>
               <path d="M229.5, 680 L229.5 709.5 Q229.5 713.5
                233.5 713.5
                L248 713.5 "
        style="fill:none; stroke:#444; stroke-width:1" />
               false
            </g>
            <g>
               <path d="M229.5, 680 L229.5 758 Q229.5 762
                233.5 762
                L248 762 "
        style="fill:none; stroke:#444; stroke-width:1" />
               false
            </g>
            <g>
               <path d="M229.5, 680 L229.5 806.5 Q229.5 810.5
                233.5 810.5
                L248 810.5 "
        style="fill:none; stroke:#444; stroke-width:1" />
               false
            </g>
            <g>
               <path d="M229.5, 680 L229.5 855 Q229.5 859
                233.5 859
                L248 859 "
        style="fill:none; stroke:#444; stroke-width:1" />
               false
            </g>
            <g>
               <path d="M105.5, 270.5 L105.5 920 Q105.5 924
                109.5 924
                L116 924 "
        style="fill:none; stroke:#444; stroke-width:1" />
               <path d="M116, 921 L124, 924 L116, 927 Z" 
        fill="#333" />
            </g>
            <g>
               <path d="M154, 954 L154 975 Q154 979
                158 979
                L166 979 "
        style="fill:none; stroke:#444; stroke-width:1" />
               <path d="M166, 976 L174, 979 L166, 982 Z" 
        fill="#333" />
            </g>
            <g>
               <path d="M192.5, 994 L192.5 1023.5 Q192.5 1027.5
                196.5 1027.5
                L203 1027.5 "
        style="fill:none; stroke:#444; stroke-width:1" />
               <path d="M203, 1024.5 L211, 1027.5 L203, 1030.5 Z" 
        fill="#333" />
            </g>
            <g>
               <path d="M229.5, 1042.5 L229.5 1072 Q229.5 1076
                233.5 1076
                L248 1076 "
        style="fill:none; stroke:#444; stroke-width:1" />
               false
            </g>
            <g>
               <path d="M229.5, 1042.5 L229.5 1120.5 Q229.5 1124.5
                233.5 1124.5
                L248 1124.5 "
        style="fill:none; stroke:#444; stroke-width:1" />
               false
            </g>
            <g>
               <path d="M229.5, 1042.5 L229.5 1169 Q229.5 1173
                233.5 1173
                L248 1173 "
        style="fill:none; stroke:#444; stroke-width:1" />
               false
            </g>
            <g>
               <path d="M229.5, 1042.5 L229.5 1217.5 Q229.5 1221.5
                233.5 1221.5
                L248 1221.5 "
        style="fill:none; stroke:#444; stroke-width:1" />
               false
            </g>
            <g>
               <path d="M105.5, 270.5 L105.5 1282.5 Q105.5 1286.5
                109.5 1286.5
                L116 1286.5 "
        style="fill:none; stroke:#444; stroke-width:1" />
               <path d="M116, 1283.5 L124, 1286.5 L116, 1289.5 Z" 
        fill="#333" />
            </g>
            <g>
               <path d="M154, 1316.5 L154 1337.5 Q154 1341.5
                158 1341.5
                L166 1341.5 "
        style="fill:none; stroke:#444; stroke-width:1" />
               <path d="M166, 1338.5 L174, 1341.5 L166, 1344.5 Z" 
        fill="#333" />
            </g>
            <g>
               <path d="M192.5, 1356.5 L192.5 1386 Q192.5 1390
                196.5 1390
                L203 1390 "
        style="fill:none; stroke:#444; stroke-width:1" />
               <path d="M203, 1387 L211, 1390 L203, 1393 Z" 
        fill="#333" />
            </g>
            <g>
               <path d="M229.5, 1405 L229.5 1434.5 Q229.5 1438.5
                233.5 1438.5
                L248 1438.5 "
        style="fill:none; stroke:#444; stroke-width:1" />
               false
            </g>
            <g>
               <path d="M229.5, 1405 L229.5 1483 Q229.5 1487
                233.5 1487
                L248 1487 "
        style="fill:none; stroke:#444; stroke-width:1" />
               false
            </g>
            <g>
               <path d="M229.5, 1405 L229.5 1531.5 Q229.5 1535.5
                233.5 1535.5
                L248 1535.5 "
        style="fill:none; stroke:#444; stroke-width:1" />
               false
            </g>
            <g>
               <path d="M229.5, 1405 L229.5 1580 Q229.5 1584
                233.5 1584
                L248 1584 "
        style="fill:none; stroke:#444; stroke-width:1" />
               false
            </g>
            <g>
               <path d="M105.5, 270.5 L105.5 1645 Q105.5 1649
                109.5 1649
                L116 1649 "
        style="fill:none; stroke:#444; stroke-width:1" />
               <path d="M116, 1646 L124, 1649 L116, 1652 Z" 
        fill="#333" />
            </g>
            <g>
               <path d="M154, 1679 L154 1700 Q154 1704
                158 1704
                L166 1704 "
        style="fill:none; stroke:#444; stroke-width:1" />
               <path d="M166, 1701 L174, 1704 L166, 1707 Z" 
        fill="#333" />
            </g>
            <g>
               <path d="M192.5, 1719 L192.5 1748.5 Q192.5 1752.5
                196.5 1752.5
                L203 1752.5 "
        style="fill:none; stroke:#444; stroke-width:1" />
               <path d="M203, 1749.5 L211, 1752.5 L203, 1755.5 Z" 
        fill="#333" />
            </g>
            <g>
               <path d="M229.5, 1767.5 L229.5 1797 Q229.5 1801
                233.5 1801
                L248 1801 "
        style="fill:none; stroke:#444; stroke-width:1" />
               false
            </g>
            <g>
               <path d="M229.5, 1767.5 L229.5 1845.5 Q229.5 1849.5
                233.5 1849.5
                L248 1849.5 "
        style="fill:none; stroke:#444; stroke-width:1" />
               false
            </g>
            <g>
               <path d="M229.5, 1767.5 L229.5 1894 Q229.5 1898
                233.5 1898
                L248 1898 "
        style="fill:none; stroke:#444; stroke-width:1" />
               false
            </g>
            <g>
               <path d="M229.5, 1767.5 L229.5 1942.5 Q229.5 1946.5
                233.5 1946.5
                L248 1946.5 "
        style="fill:none; stroke:#444; stroke-width:1" />
               false
            </g>
            <g>
               <path d="M105.5, 270.5 L105.5 2007.5 Q105.5 2011.5
                109.5 2011.5
                L116 2011.5 "
        style="fill:none; stroke:#444; stroke-width:1" />
               <path d="M116, 2008.5 L124, 2011.5 L116, 2014.5 Z" 
        fill="#333" />
            </g>
            <g>
               <path d="M154, 2041.5 L154 2062.5 Q154 2066.5
                158 2066.5
                L166 2066.5 "
        style="fill:none; stroke:#444; stroke-width:1" />
               <path d="M166, 2063.5 L174, 2066.5 L166, 2069.5 Z" 
        fill="#333" />
            </g>
            <g>
               <path d="M192.5, 2081.5 L192.5 2111 Q192.5 2115
                196.5 2115
                L203 2115 "
        style="fill:none; stroke:#444; stroke-width:1" />
               <path d="M203, 2112 L211, 2115 L203, 2118 Z" 
        fill="#333" />
            </g>
            <g>
               <path d="M229.5, 2130 L229.5 2159.5 Q229.5 2163.5
                233.5 2163.5
                L248 2163.5 "
        style="fill:none; stroke:#444; stroke-width:1" />
               false
            </g>
            <g>
               <path d="M229.5, 2130 L229.5 2208 Q229.5 2212
                233.5 2212
                L248 2212 "
        style="fill:none; stroke:#444; stroke-width:1" />
               false
            </g>
            <g>
               <path d="M229.5, 2130 L229.5 2256.5 Q229.5 2260.5
                233.5 2260.5
                L248 2260.5 "
        style="fill:none; stroke:#444; stroke-width:1" />
               false
            </g>
            <g>
               <path d="M229.5, 2130 L229.5 2305 Q229.5 2309
                233.5 2309
                L248 2309 "
        style="fill:none; stroke:#444; stroke-width:1" />
               false
            </g>
            <g>
               <path d="M105.5, 270.5 L105.5 2370 Q105.5 2374
                109.5 2374
                L116 2374 "
        style="fill:none; stroke:#444; stroke-width:1" />
               <path d="M116, 2371 L124, 2374 L116, 2377 Z" 
        fill="#333" />
            </g>
            <g>
               <path d="M154, 2404 L154 2425 Q154 2429
                158 2429
                L166 2429 "
        style="fill:none; stroke:#444; stroke-width:1" />
               <path d="M166, 2426 L174, 2429 L166, 2432 Z" 
        fill="#333" />
            </g>
            <g>
               <path d="M192.5, 2444 L192.5 2473.5 Q192.5 2477.5
                196.5 2477.5
                L203 2477.5 "
        style="fill:none; stroke:#444; stroke-width:1" />
               <path d="M203, 2474.5 L211, 2477.5 L203, 2480.5 Z" 
        fill="#333" />
            </g>
            <g>
               <path d="M229.5, 2492.5 L229.5 2522 Q229.5 2526
                233.5 2526
                L248 2526 "
        style="fill:none; stroke:#444; stroke-width:1" />
               false
            </g>
            <g>
               <path d="M229.5, 2492.5 L229.5 2570.5 Q229.5 2574.5
                233.5 2574.5
                L248 2574.5 "
        style="fill:none; stroke:#444; stroke-width:1" />
               false
            </g>
            <g>
               <path d="M229.5, 2492.5 L229.5 2619 Q229.5 2623
                233.5 2623
                L248 2623 "
        style="fill:none; stroke:#444; stroke-width:1" />
               false
            </g>
            <g>
               <path d="M229.5, 2492.5 L229.5 2667.5 Q229.5 2671.5
                233.5 2671.5
                L248 2671.5 "
        style="fill:none; stroke:#444; stroke-width:1" />
               false
            </g>
            <g>
               <path d="M105.5, 270.5 L105.5 2717.5 Q105.5 2721.5
                109.5 2721.5
                L116 2721.5 "
        style="fill:none; stroke:#444; stroke-width:1" />
               <path d="M116, 2718.5 L124, 2721.5 L116, 2724.5 Z" 
        fill="#333" />
            </g>
            </svg>