<svg width="24px" height="24px" viewBox="0 0 274 274" xmlns="http://www.w3.org/2000/svg"><path d="M210.6 77.1c4.3 0 7.6 3.5 7.7 7.9 0 4.4-3.5 7.9-7.7 7.9h-147a8 8 0 01-8-7.9c0-4.5 3.5-7.9 8-7.9h147zm-57.9 28.4h57.8c4.4 0 7.7 3.5 7.7 8 0 4.4-3.5 7.7-7.7 7.7h-49.8v93.4a8 8 0 11-15.9 0V113.5a8 8 0 017.9-8zM12 191.9A136.2 136.2 0 0137.3 43 136 136 0 01124.2.4a7.7 7.7 0 011.8 15.2A121.8 121.8 0 0015.5 136.8c0 16.4 3.4 32.6 10.2 48.1.5.9.8 2.1.8 3.3 0 4.3-3.5 7.7-7.7 7.7-3 0-5.5-1.5-6.8-4zM236.9 43.3a136.5 136.5 0 0136.9 93.3c0 19.8-3.7 38.3-11.2 55.2a7.9 7.9 0 01-6.8 4c-1.2 0-2.4-.4-3.5-.9l-.2-.1a7.8 7.8 0 01-3.9-6.7c0-1.1.3-2.3.8-3.3 6.4-15 9.6-31.1 9.6-48.1a121.5 121.5 0 00-109.3-121 7 7 0 01-5.3-3.6A7.9 7.9 0 01150.2.4a137 137 0 0186.7 42.9zM121 222.6a8 8 0 01-8-7.9v-93.4H63.6a7.8 7.8 0 110-15.7H121c4.5 0 8 3.5 8 8v101c0 4.5-3.5 8-8 8zm122.1-18.9c4.4 0 7.7 3.4 7.9 7.7 0 1.1-.3 2-.6 2.9a137.2 137.2 0 01-225.6.3c-.4-.9-.7-2.1-.7-3.2 0-4.4 3.3-7.8 7.6-7.8 2.6 0 4.9 1.2 6.3 3.1a121.6 121.6 0 00198.8.1 8 8 0 016.3-3.1z"/></svg>