<svg xmlns="http://www.w3.org/2000/svg" width="16" height="16" viewBox="0 0 24 24"><path d="M17 12a5 5 0 1 1-10 0 5 5 0 0 1 10 0zm-2 0a3 3 0 1 0-6 0 3 3 0 0 0 6 0z"/><path d="M20 19a2 2 0 0 0 2-2h-.004V9H22a2 2 0 0 0-2-2h-2.7a1 1 0 0 1-.885-.536L15.125 4H9.002L7.766 6.362c-.12.345-.421.624-.902.637a1 1 0 0 1-.923-1.463L6.22 5h.605c.831 0 1.144.776.94 1.362l-.054.102A1 1 0 0 1 6.761 7a1 1 0 1 1 0-2h.065v2H4a2 2 0 0 0-2 2v8a2 2 0 0 0 2 2h16zm0 2H4a4 4 0 0 1-4-4V9a4 4 0 0 1 4-4h2.221l1.29-2.464A1 1 0 0 1 8.398 2h7.333a1 1 0 0 1 .885.536L17.905 5H20a4 4 0 0 1 4 4h-.004v8H24a4 4 0 0 1-4 4z"/></svg>