<svg xmlns="http://www.w3.org/2000/svg" width="16" height="16" viewBox="0 0 24 24"><path d="M11.449 24H2.824A2.824 2.824 0 0 1 0 21.176V12c1.114-1.048 3.457-3.322 3.925-3.854A72.127 72.127 0 0 0 5.518 6.27c-.892.624-1.558 1.129-1.997 1.514C3.082 8.17 1.91 9.244 0 11.007V2.824A2.824 2.824 0 0 1 2.824 0h18.352A2.824 2.824 0 0 1 24 2.824v18.352A2.824 2.824 0 0 1 21.176 24h-8.834l.364-.003a2108.37 2108.37 0 0 0 3.16-3.136c.533-.531 1.155-1.252 1.867-2.164a28.814 28.814 0 0 0-2.343 1.81c-.499.434-3.013 2.627-3.955 3.49 0 .002.005.002.014.003zm3.175-8.452l2.517 2.59c.156.162.38.239.602.208.936-.128 1.391-1.081 1.627-2.742.234-1.653.174-9.074.112-9.88-.053-.69-.341-1.262-1.102-1.27-3.124-.038-5.097.072-8.073.207-1.562.07-2.814.234-3.866.544a.706.706 0 0 0-.462.43c-.191.513-.095 1.025.31 1.377.124.106.931.968 2.324 2.482l-5.075 5.09a.706.706 0 0 0-.104.864c.542.893 1.317 1.816 2.326 2.773.992.941 1.96 1.736 2.906 2.382.278.19.652.157.893-.079l5.065-4.976z"/></svg>