<svg xmlns="http://www.w3.org/2000/svg" viewBox="0 0 1200 300"><path fill="#FFF" d="M867.3 91.5c-4.2 0-8 3.6-8 8V177l-65-82.1c-1.4-2.2-3.6-3.2-6.4-3.2-4.2 0-8 3.6-8 8v103c0 4.2 3.6 8 8 8 4.2 0 8-3.6 8-8v-77.1l64.8 81.6c1.4 2.1 3.9 3.4 6.6 3.4 4.2 0 8-3.6 8-8V99.5c0-4.3-3.6-8-8-8zM627 200.8c0-1.8-.5-3.3-1.7-4.8l-22.6-27.3 3.5-.8c16.1-4.8 25.8-18 25.8-38 0-23-16.1-38.2-39.3-38.2h-38.9c-4.4 0-8.2 3.6-8.2 8.2V201c0 4.4 3.6 8.2 8.2 8.2 4.4 0 8.2-3.6 8.2-8.2v-31.9h19.7l31.1 37.1c1.3 1.7 3.8 2.9 6.3 2.9 4.2-.1 7.9-3.8 7.9-8.3zm-65.1-45.5v-49.8h30.5c14.4 0 23.8 10.3 23.8 24.3 0 14.7-6.4 25.4-23.3 25.4h-31v.1zm-125.6 55.2c4.4 0 8.2-3.6 8.2-8.2v-95.7H478c3.7 0 6.9-3 6.9-6.9s-3-6.9-6.9-6.9h-83.4c-3.7 0-6.9 3-6.9 6.9s3 6.9 6.9 6.9h33.6v95.7c0 4.5 3.6 8.2 8.1 8.2zm265.5-119c-4.4 0-8.2 3.6-8.2 8.2v102.6c0 4.4 3.6 8.2 8.2 8.2 4.4 0 8.2-3.6 8.2-8.2V99.7c0-4.5-3.7-8.2-8.2-8.2zm248.8 0c-4.4 0-8.2 3.6-8.2 8.2v102.6c0 4.4 3.6 8.2 8.2 8.2 4.5 0 8.2-3.6 8.2-8.2V99.7c0-4.5-3.8-8.2-8.2-8.2zm119.3 119c4.4 0 8.2-3.6 8.2-8.2v-95.7h33.5c3.7 0 6.9-3 6.9-6.9s-3-6.9-6.9-6.9h-83.4c-3.7 0-6.9 3-6.9 6.9s3 6.9 6.9 6.9h33.5v95.7c0 4.5 3.6 8.2 8.2 8.2zm117.6-119c-4.4 0-8.2 3.6-8.2 8.2v102.6c0 4.4 3.6 8.2 8.2 8.2 4.4 0 8.2-3.6 8.2-8.2V99.7c0-4.5-3.6-8.2-8.2-8.2z"/><linearGradient id="a" gradientUnits="userSpaceOnUse" x1="69.199" y1="20.009" x2="257.597" y2="208.406" gradientTransform="translate(0 6.423) scale(1.0256)"><stop offset="0" stop-color="#12dbdb"/><stop offset="1" stop-color="#0fb6e3"/></linearGradient><path fill="url(#a)" d="M215.6 90.1h-147c-4.5 0-8 3.4-8 7.9 0 4.3 3.6 7.9 8 7.9h147c4.2 0 7.7-3.5 7.7-7.9-.1-4.4-3.4-7.9-7.7-7.9z"/><linearGradient id="b" gradientUnits="userSpaceOnUse" x1="52.374" y1="36.834" x2="240.771" y2="225.231" gradientTransform="translate(0 6.423) scale(1.0256)"><stop offset="0" stop-color="#12dbdb"/><stop offset="1" stop-color="#0fb6e3"/></linearGradient><path fill="url(#b)" d="M157.7 118.5c-4.3 0-7.9 3.6-7.9 8v101.1c0 4.4 3.5 8 7.9 8 4.5 0 8-3.5 8-8v-93.4h49.8c4.2 0 7.7-3.3 7.7-7.7 0-4.5-3.3-8-7.7-8h-57.8z"/><linearGradient id="c" gradientUnits="userSpaceOnUse" x1="30.937" y1="58.429" x2="219.334" y2="246.827" gradientTransform="translate(0 6.423) scale(1.0256)"><stop offset="0" stop-color="#12dbdb"/><stop offset="1" stop-color="#0fb6e3"/></linearGradient><path fill="url(#c)" d="M17 204.9c1.3 2.5 3.8 4 6.8 4 4.2 0 7.7-3.4 7.7-7.7 0-1.2-.3-2.4-.8-3.3-6.8-15.5-10.2-31.7-10.2-48.1 0-31 11.7-60.5 32.8-83.2 20.4-21.9 48-35.3 77.7-38 .7-.2 1.3-.4 2.1-.8 3.7-2.2 5-6.8 2.9-10.5-1.4-2.6-4-3.9-6.8-3.9C96 16.5 65.2 31.5 42.3 56c-23.9 25.4-37 58.7-37 93.8 0 19 3.9 37.5 11.7 55.1z"/><linearGradient id="d" gradientUnits="userSpaceOnUse" x1="104.893" y1="-15.685" x2="293.291" y2="172.712" gradientTransform="translate(0 6.423) scale(1.0256)"><stop offset="0" stop-color="#12dbdb"/><stop offset="1" stop-color="#0fb6e3"/></linearGradient><path fill="url(#d)" d="M241.9 56.3c-22.9-24.5-53.6-39.6-86.7-42.9-1.1.1-2.3.4-3.2 1-3.8 2.2-5.1 6.9-3 10.7 1.2 2.2 3.1 3.2 5.3 3.6 29.3 3 56.4 16.5 76.8 38.2 20.9 22.6 32.5 51.9 32.5 82.8 0 17-3.2 33.1-9.6 48.1-.5 1-.8 2.2-.8 3.3 0 2.9 1.6 5.3 3.9 6.7l.2.1c1.1.5 2.3.9 3.5.9 2.9 0 5.4-1.6 6.8-4 7.5-16.9 11.2-35.4 11.2-55.2 0-34.7-13.1-67.7-36.9-93.3z"/><linearGradient id="e" gradientUnits="userSpaceOnUse" x1="22.835" y1="66.373" x2="211.233" y2="254.77" gradientTransform="translate(0 6.423) scale(1.0256)"><stop offset="0" stop-color="#12dbdb"/><stop offset="1" stop-color="#0fb6e3"/></linearGradient><path fill="url(#e)" d="M126 235.6c4.5 0 8-3.5 8-8v-101c0-4.5-3.5-8-8-8H68.6c-4.5 0-8 3.5-8 8 0 4.2 3.5 7.7 8 7.7H118v93.4c0 4.3 3.7 7.9 8 7.9z"/><linearGradient id="f" gradientUnits="userSpaceOnUse" x1="7.224" y1="81.985" x2="195.621" y2="270.382" gradientTransform="translate(0 6.423) scale(1.0256)"><stop offset="0" stop-color="#12dbdb"/><stop offset="1" stop-color="#0fb6e3"/></linearGradient><path fill="url(#f)" d="M248.1 216.7c-2.6 0-4.8 1.2-6.3 3.1-22.9 32.3-59.8 51.6-99.4 51.6S65.9 252.1 43 219.7c-1.4-1.9-3.7-3.1-6.3-3.1-4.3 0-7.6 3.4-7.6 7.8 0 1.1.3 2.3.7 3.2 25.8 37.1 67.5 59.1 112.7 59.1s87.1-22.2 112.9-59.4c.3-.9.6-1.8.6-2.9-.2-4.3-3.5-7.7-7.9-7.7z"/></svg>