<svg xmlns="http://www.w3.org/2000/svg" width="16" height="16" viewBox="0 0 24 24"><path d="M11.292 17.534c-2.445 0-4.217-1.359-4.217-3.523 0-2.168 1.587-3.496 4.106-3.496H13.9v-.194c0-1.029-.77-1.635-2.08-1.635-.888 0-1.499.315-2.087.99-.274.274-.563.396-.908.396a1.175 1.175 0 0 1-1.166-1.165c0-.247.09-.519.239-.716.87-1.162 2.142-1.81 3.922-1.81 2.791 0 4.411 1.578 4.411 4.08v3.383c0 1.178.344 1.525 1.303 1.525 1.822 0 2.58-.988 2.58-3.938 0-5.158-2.877-7.71-8.155-7.71-5.39 0-8.071 2.536-8.071 8.348 0 5.822 2.66 8.32 8.07 8.32 2.611 0 4.443-.272 6.131-.814.213-.068.387-.194.638-.194.622 0 1.138.485 1.138 1.137 0 .368-.147.746-.846 1.008-2.294.83-3.92 1.084-7.06 1.084C5.234 22.61 1.5 18.997 1.5 12.069 1.5 5.117 5.23 1.5 11.958 1.5c6.424 0 10.541 3.606 10.541 9.93 0 3.642-1.44 6.104-4.966 6.104-1.365 0-2.375-.465-3.002-1.302-.788.831-1.905 1.302-3.239 1.302zm-.11-4.826c-1.162 0-1.72.432-1.72 1.303 0 .828.622 1.303 1.941 1.303 1.418 0 2.496-.853 2.496-2.191v-.415H11.18z"/></svg>