<svg xmlns="http://www.w3.org/2000/svg" width="16" height="16" viewBox="0 0 24 24"><title>Age</title><path d="M20.5 0a1 1 0 011 1v4a1 1 0 01-1 1h-4a1 1 0 010-2H18a10 10 0 104 8c0-.45-.06-1.05-.2-1.78-.09-.55.24-1.09.78-1.24.5-.14 1 .15 1.14.64l.02.09.1.6c.1.68.16 1.24.16 1.69a12 12 0 11-4.5-9.37V1a1 1 0 011-1zm-8.21 8.19c1.13 0 1.77.57 1.84 1.4V10.98h-1.07V9.92c0-.49-.27-.77-.77-.77-.46 0-.72.24-.76.65v4.57c0 .5.26.77.76.77.46 0 .72-.23.76-.65V13.31h-.79v-.97h1.87v2.22c0 .92-.62 1.54-1.84 1.54-1.15 0-1.77-.55-1.84-1.4V9.73c0-.92.63-1.54 1.84-1.54zm6.38.11v.96H16.3v2.3h2.03v.95H16.3v2.52h2.36V16h-3.44V8.3h3.44zm-10.64 0l1.32 7.69H8.27L8 14.16H6.69L6.4 16H5.33L6.65 8.3h1.38zm-.7 1.54l-.5 3.37h1.02l-.51-3.37z"/></svg>
