<svg xmlns="http://www.w3.org/2000/svg" width="16" height="16" viewBox="0 0 24 24"><path d="M12 23C5.925 23 1 18.075 1 12S5.925 1 12 1s11 4.925 11 11-4.925 11-11 11zm0-2a9 9 0 1 0 0-18 9 9 0 0 0 0 18zm1-9.423l4.799 2.771a1 1 0 0 1-1 1.732l-5.25-3.031a.998.998 0 0 1-.486-.699A.998.998 0 0 1 11 12V6a1 1 0 0 1 2 0v5.577zM18.284.39a3.995 3.995 0 0 1 5.327 5.327.5.5 0 0 1-.845.092c-.92-1.174-1.633-2.013-2.13-2.51-.503-.503-1.319-1.192-2.442-2.062a.5.5 0 0 1 .09-.847zM.39 5.716A3.995 3.995 0 0 1 5.716.389a.5.5 0 0 1 .086.85c-1.138.864-1.958 1.548-2.456 2.046-.5.5-1.205 1.341-2.109 2.52a.5.5 0 0 1-.848-.09z"/></svg>