<svg xmlns="http://www.w3.org/2000/svg" width="16" height="16" viewBox="0 0 24 24"><path d="M24 22.4a1.6 1.6 0 0 1-1.6 1.6h-7.8a1.6 1.6 0 0 1-1.6-1.6v-7.8a1.6 1.6 0 0 1 1.6-1.6h7.8a1.6 1.6 0 0 1 1.6 1.6v7.8zM22 15h-7v7h7v-7zm2-5.6a1.6 1.6 0 0 1-1.6 1.6h-7.8A1.6 1.6 0 0 1 13 9.4V1.6A1.6 1.6 0 0 1 14.6 0h7.8A1.6 1.6 0 0 1 24 1.6v7.8zM22 9V2h-7v7h7zm-11 .4A1.6 1.6 0 0 1 9.4 11H1.6A1.6 1.6 0 0 1 0 9.4V1.6A1.6 1.6 0 0 1 1.6 0h7.8A1.6 1.6 0 0 1 11 1.6v7.8zM9 9V2H2v7h7zm2 13.4A1.6 1.6 0 0 1 9.4 24H1.6A1.6 1.6 0 0 1 0 22.4v-7.8A1.6 1.6 0 0 1 1.6 13h7.8a1.6 1.6 0 0 1 1.6 1.6v7.8zM9 22v-7H2v7h7z"/></svg>