<svg xmlns="http://www.w3.org/2000/svg" width="16" height="16" viewBox="0 0 24 24"><path d="M0 10.002V10a1 1 0 0 1 1-1h3.409c.28 0 .533.115.715.3.001.002.9.569 2.699 1.7h8.358l2.693-1.693a.995.995 0 0 1 .549-.28c.074-.018.151-.027.23-.027H23a1 1 0 0 1 1 1v9a3 3 0 0 1-3 3H3a3 3 0 0 1-3-3v-8.998zM2 11v8a1 1 0 0 0 1 1h18a1 1 0 0 0 1-1v-8h-1.99l-2.42 1.577c-.36.232-.557.423-.936.423H7.409c-.295 0-.518-.128-.78-.305L3.994 11H2zm2-4v1H2V6a1 1 0 0 1 1-1h18a1 1 0 0 1 1 1v2h-2V7H4zm16-4v1H4V3a1 1 0 0 1 1-1h14a1 1 0 0 1 1 1zm-5.5 14h-5A1.5 1.5 0 0 1 8 15.5V15h8v.5a1.5 1.5 0 0 1-1.5 1.5z"/></svg>