<svg xmlns="http://www.w3.org/2000/svg" width="16" height="16" viewBox="0 0 24 24"><path d="M12,7.59418093 L2.53877421,17.064982 C2.16308063,17.4410558 1.61549529,17.5879293 1.10228829,17.4502768 C0.589081295,17.3126242 0.188221,16.9113582 0.0507076051,16.3976318 C-0.0868057902,15.8839054 0.0599192703,15.3357659 0.435612875,14.9596921 L10.9484193,4.43624617 C11.2272449,4.15693348 11.6055363,4 12,4 C12.3944637,4 12.7727552,4.15693348 13.0515807,4.43624617 L23.5643871,14.9596921 C23.9400807,15.3357659 24.0868058,15.8839054 23.9492924,16.3976318 C23.811779,16.9113582 23.4109187,17.3126242 22.8977117,17.4502768 C22.3845047,17.5879293 21.8369194,17.4410558 21.4612258,17.064982 L12,7.59418093 Z"/></svg>