<svg xmlns="http://www.w3.org/2000/svg" width="16" height="16" viewBox="0 0 24 24"><path d="M5 8.5L9.5 4a.5.5 0 0 1 .5.5v15a.5.5 0 0 1-.5.5L5 15.5H2.5A.5.5 0 0 1 2 15V9a.5.5 0 0 1 .5-.5H5zm7.841 7.27a.75.75 0 0 1-1.132-.983A4.23 4.23 0 0 0 12.75 12a4.23 4.23 0 0 0-1.036-2.78.75.75 0 0 1 1.134-.983A5.73 5.73 0 0 1 14.25 12a5.73 5.73 0 0 1-1.409 3.77zm2.973 1.72a.75.75 0 0 1-1.168-.942A7.215 7.215 0 0 0 16.25 12a7.215 7.215 0 0 0-1.597-4.54.75.75 0 0 1 1.17-.94A8.715 8.715 0 0 1 17.75 12c0 2.025-.69 3.946-1.936 5.49zm3.058 1.83a.75.75 0 1 1-1.098-1.021A9.213 9.213 0 0 0 20.25 12a9.213 9.213 0 0 0-2.472-6.294.75.75 0 1 1 1.1-1.021A10.713 10.713 0 0 1 21.75 12c0 2.753-1.04 5.345-2.878 7.32z"/></svg>