<svg xmlns="http://www.w3.org/2000/svg" width="16" height="16" viewBox="0 0 24 24"><path d="M8.887 2l-2.58 9h3.792a1 1 0 0 1 1.007 1.233L10.08 19.54 18.314 9h-4.18a1 1 0 0 1-.993-1.12c.005-.065.017-.13.035-.196L14.806 2H8.888zM8 .009V0h8v.009a1 1 0 0 1 1.095 1.267L15.453 7h4.68a1 1 0 0 1 .856.482 1 1 0 0 1 .045 1.285A12312.486 12312.486 0 0 1 9.443 23.592c-.25.285-.614.444-.998.39a1 1 0 0 1-.85-1.13L8.978 13H5.134c-.201 0-.388-.059-.545-.16a1 1 0 0 1-.55-1.188L7.172.725A1 1 0 0 1 8 .009z"/></svg>