<svg xmlns="http://www.w3.org/2000/svg" width="16" height="16" viewBox="0 0 24 24">
<path d="M15,19 L15,17 L22,17 L22,5 L15,5 L15,3 L23,3 C23.5522847,3 24,3.44771525 24,4 L24,18 C24,18.5522847 23.5522847,19 23,19 L15,19 Z M9,3 C10.1946925,3 11.2670555,3.52375489 12,4.3541756 C12.7329445,3.52375489 13.8053075,3 15,3 L15,5 C13.8954305,5 13,5.8954305 13,7 L13,17.5351288 C13.5883467,17.1947886 14.2714257,17 15,17 L15,19 C13.8954305,19 13,19.8954305 13,21 L11,21 C11,19.8954305 10.1045695,19 9,19 L1,19 C0.44771525,19 6.76353751e-17,18.5522847 0,18 L0,4 C-6.76353751e-17,3.44771525 0.44771525,3 1,3 L9,3 Z M9,5 L2,5 L2,17 L9,17 C9.72857429,17 10.4116533,17.1947886 11,17.5351288 L11,7 C11,5.8954305 10.1045695,5 9,5 Z M4.5,7 L6.5,7 C6.77614237,7 7,7.22385763 7,7.5 C7,7.77614237 6.77614237,8 6.5,8 L4.5,8 C4.22385763,8 4,7.77614237 4,7.5 C4,7.22385763 4.22385763,7 4.5,7 Z M4.5,10 L8.5,10 C8.77614237,10 9,10.2238576 9,10.5 C9,10.7761424 8.77614237,11 8.5,11 L4.5,11 C4.22385763,11 4,10.7761424 4,10.5 C4,10.2238576 4.22385763,10 4.5,10 Z M4.5,13 L8.5,13 C8.77614237,13 9,13.2238576 9,13.5 C9,13.7761424 8.77614237,14 8.5,14 L4.5,14 C4.22385763,14 4,13.7761424 4,13.5 C4,13.2238576 4.22385763,13 4.5,13 Z M15.5,13 L19.5,13 C19.7761424,13 20,13.2238576 20,13.5 C20,13.7761424 19.7761424,14 19.5,14 L15.5,14 C15.2238576,14 15,13.7761424 15,13.5 C15,13.2238576 15.2238576,13 15.5,13 Z M15.5,10 L19.5,10 C19.7761424,10 20,10.2238576 20,10.5 C20,10.7761424 19.7761424,11 19.5,11 L15.5,11 C15.2238576,11 15,10.7761424 15,10.5 C15,10.2238576 15.2238576,10 15.5,10 Z M15.5,7 L19.5,7 C19.7761424,7 20,7.22385763 20,7.5 C20,7.77614237 19.7761424,8 19.5,8 L15.5,8 C15.2238576,8 15,7.77614237 15,7.5 C15,7.22385763 15.2238576,7 15.5,7 Z"/>
</svg>