<svg xmlns="http://www.w3.org/2000/svg" width="16" height="16" viewBox="0 0 24 24"><title>Calendar Age</title><path d="M11.67 12l-.42 1.88h2.47l.43-1.88h1.3l-.42 1.88H17l-.3 1.36h-1.95l-.5 2.28h1.96l-.3 1.38h-1.95l-.45 2.09h-1.44l.48-2.1h-2.37L9.73 21H8.3l.48-2.1H7l.31-1.37H9.1l.54-2.28H7.78l.31-1.36h1.85l.43-1.88h1.3zm1.73 3.24h-2.43l-.5 2.28h2.4l.53-2.28z"/><path d="M17.5 0c.83 0 1.5.67 1.5 1.5v5a1.5 1.5 0 01-3 0v-5c0-.83.67-1.5 1.5-1.5zm-11 0C7.33 0 8 .67 8 1.5v5a1.5 1.5 0 01-3 0v-5C5 .67 5.67 0 6.5 0zM20 3a4 4 0 014 4v13a4 4 0 01-4 4H4a4 4 0 01-4-4V7a4 4 0 014-4h16zm0 2H4a2 2 0 00-2 2v13c0 1.1.9 2 2 2h16a2 2 0 002-2V7a2 2 0 00-2-2zM2 9v2h20V9H2z"/></svg>
