<svg xmlns="http://www.w3.org/2000/svg" width="16" height="16" viewBox="0 0 24 24"><title>Calendar Date</title><path d="M17.5 0c.83 0 1.5.67 1.5 1.5v5a1.5 1.5 0 01-3 0v-5c0-.83.67-1.5 1.5-1.5zm-11 0C7.33 0 8 .67 8 1.5v5a1.5 1.5 0 01-3 0v-5C5 .67 5.67 0 6.5 0zM20 3a4 4 0 014 4v13a4 4 0 01-4 4H4a4 4 0 01-4-4V7a4 4 0 014-4h16zm0 2H4a2 2 0 00-2 2v13c0 1.1.9 2 2 2h16a2 2 0 002-2V7a2 2 0 00-2-2zM2 9v2h20V9H2z"/><path d="M11.79 11.63a.24.24 0 01.42 0l1.26 2.56 2.83.41c.2.03.27.27.13.4l-2.04 2 .48 2.8c.03.2-.17.35-.35.26L12 18.73l-2.52 1.33a.24.24 0 01-.35-.25l.48-2.82L7.57 15a.24.24 0 01.13-.4l2.83-.41 1.26-2.56z"/></svg>
