<svg xmlns="http://www.w3.org/2000/svg" width="16" height="16" viewBox="0 0 24 24">
<path d="M3,0 L21,0 C22.6568542,0 24,1.34314575 24,3 L24,21 C24,22.6568542 22.6568542,24 21,24 L3,24 C1.34314575,24 0,22.6568542 0,21 L0,3 C0,1.34314575 1.34314575,0 3,0 Z M15.9710811,7.90852607 L10.414407,13.1467181 L8.07407134,10.7460511 C7.49578612,10.1528583 6.54611554,10.1407733 5.95292274,10.7190585 C5.35972994,11.2973437 5.34764496,12.2470143 5.92593018,12.8402071 L9.29593018,16.2970821 C9.86736993,16.883253 10.8032496,16.903012 11.3989205,16.3414821 L18.0289205,10.0914821 C18.6317271,9.52322544 18.6597354,8.57389105 18.0914788,7.97108439 C17.5232221,7.36827773 16.5738877,7.34026941 15.9710811,7.90852607 Z"/>
</svg>