<svg xmlns="http://www.w3.org/2000/svg" width="16" height="16" viewBox="0 0 24 24">
<path d="M3,0 L21,0 C22.6568542,0 24,1.34314575 24,3 L24,21 C24,22.6568542 22.6568542,24 21,24 L3,24 C1.34314575,24 0,22.6568542 0,21 L0,3 C0,1.34314575 1.34314575,0 3,0 Z M3,2 C2.44771525,2 2,2.44771525 2,3 L2,21 C2,21.5522847 2.44771525,22 3,22 L21,22 C21.5522847,22 22,21.5522847 22,21 L22,3 C22,2.44771525 21.5522847,2 21,2 L3,2 Z M16.314054,8.27235071 C16.7159252,7.89351294 17.3488147,7.91218515 17.7276525,8.31405626 C18.1064903,8.71592737 18.0878181,9.34881696 17.685947,9.72765473 L11.055947,15.9776547 C10.658833,16.352008 10.0349133,16.3388353 9.65395346,15.9480547 L6.28395346,12.4911797 C5.89842997,12.0957179 5.90648662,11.4626042 6.30194849,11.0770807 C6.69741036,10.6915572 7.33052408,10.6996138 7.71604756,11.0950757 L10.3996047,13.847812 L16.314054,8.27235071 Z"/>
</svg>