<svg xmlns="http://www.w3.org/2000/svg" width="16" height="16" viewBox="0 0 24 24">
<path d="M22,12 C22,13.8088541 21.5510357,15.4887056 20.6563211,17.0213907 C19.7645972,18.5489524 18.5489524,19.7645972 17.0213907,20.6563211 C15.4887056,21.5510357 13.8088541,22 12,22 C10.1911459,22 8.51129437,21.5510357 6.9786093,20.6563211 C5.45104762,19.7645972 4.23540275,18.5489524 3.34367893,17.0213907 C2.44896429,15.4887056 2,13.8088541 2,12 C2,10.1911459 2.44896429,8.51129437 3.34367893,6.9786093 C4.23540275,5.45104762 5.45104762,4.23540275 6.9786093,3.34367893 C8.51129437,2.44896429 10.1911459,2 12,2 C13.8088541,2 15.4887056,2.44896429 17.0213907,3.34367893 C18.5489524,4.23540275 19.7645972,5.45104762 20.6563211,6.9786093 C21.5510357,8.51129437 22,10.1911459 22,12 Z M20,12 C20,10.5433984 19.6440984,9.21175179 18.9290814,7.98689645 C18.2110735,6.75691772 17.2430823,5.78892653 16.0131036,5.07091864 C14.7882482,4.35590157 13.4566016,4 12,4 C10.5433984,4 9.21175179,4.35590157 7.98689645,5.07091864 C6.75691772,5.78892653 5.78892653,6.75691772 5.07091864,7.98689645 C4.35590157,9.21175179 4,10.5433984 4,12 C4,13.4566016 4.35590157,14.7882482 5.07091864,16.0131036 C5.78892653,17.2430823 6.75691772,18.2110735 7.98689645,18.9290814 C9.21175179,19.6440984 10.5433984,20 12,20 C13.4566016,20 14.7882482,19.6440984 16.0131036,18.9290814 C17.2430823,18.2110735 18.2110735,17.2430823 18.9290814,16.0131036 C19.6440984,14.7882482 20,13.4566016 20,12 Z"/>
</svg>