<svg xmlns="http://www.w3.org/2000/svg" width="16" height="16" viewBox="0 0 24 24">
<path d="M21,12 C21,13.6327279 20.5975671,15.1384769 19.7927012,16.5172471 C18.9878354,17.8960173 17.8960173,18.9878354 16.5172471,19.7927012 C15.1384769,20.5975671 13.6327279,21 12,21 C10.3672721,21 8.86152308,20.5975671 7.48275287,19.7927012 C6.10398267,18.9878354 5.01216464,17.8960173 4.20729878,16.5172471 C3.40243293,15.1384769 3,13.6327279 3,12 C3,10.3672721 3.40243293,8.86152308 4.20729878,7.48275287 C5.01216464,6.10398267 6.10398267,5.01216464 7.48275287,4.20729878 C8.86152308,3.40243293 10.3672721,3 12,3 C13.6327279,3 15.1384769,3.40243293 16.5172471,4.20729878 C17.8960173,5.01216464 18.9878354,6.10398267 19.7927012,7.48275287 C20.5975671,8.86152308 21,10.3672721 21,12 Z"/>
</svg>