<svg xmlns="http://www.w3.org/2000/svg" width="16" height="16" viewBox="0 0 24 24"><path d="M2.213 11.993l3.931 3.92a.917.917 0 1 1-1.296 1.296l-4.58-4.568a.917.917 0 0 1 0-1.296l4.584-4.577a.917.917 0 0 1 1.296 1.297l-3.935 3.928zm19.57 0l-3.935-3.928a.917.917 0 0 1 1.297-1.297l4.583 4.577a.917.917 0 0 1 0 1.296l-4.58 4.568a.917.917 0 1 1-1.296-1.296l3.932-3.92zm-5.654-7.19a.872.872 0 0 1 .44 1.178L9.076 18.816a.933.933 0 0 1-1.219.433.872.872 0 0 1-.44-1.178L14.91 5.235a.933.933 0 0 1 1.22-.433z"/></svg>