<svg xmlns="http://www.w3.org/2000/svg" width="16" height="16" viewBox="0 0 24 24"><path d="M21.778 9.124c.37.058.69.25.916.548.2.265.306.579.306.91v2.89c0 .32-.104.623-.292.884a1.403 1.403 0 0 1-.922.574l-1.83.277a9.5 9.5 0 0 1-.076.178c.263.348.598.77 1.002 1.263.23.275.361.605.361.963 0 .36-.13.695-.31.89-.273.375-.733.877-1.393 1.528-.862.851-1.34 1.213-1.926 1.213-.314 0-.607-.1-.954-.329l-1.311-1.026-.137.058c-.116.896-.223 1.536-.327 1.934-.173.688-.729 1.121-1.438 1.121h-2.89c-.348 0-.675-.113-.946-.33-.304-.245-.49-.591-.512-.91l-.275-1.808-.148-.06-1.294.978a1.466 1.466 0 0 1-.993.372 1.41 1.41 0 0 1-.996-.402c-1.143-1.034-1.896-1.801-2.295-2.352a1.506 1.506 0 0 1 .015-1.757c.142-.199.371-.498.693-.906l.32-.41a7.443 7.443 0 0 1-.115-.275l-1.79-.264a1.41 1.41 0 0 1-.915-.548 1.495 1.495 0 0 1-.306-.91v-2.89c0-.32.104-.623.292-.884.212-.294.512-.5.91-.574l1.83-.276c.027-.066.055-.132.085-.198-.278-.369-.611-.788-1-1.257a1.473 1.473 0 0 1-.36-.95c0-.318.11-.6.306-.886.267-.369.725-.869 1.392-1.526.87-.857 1.348-1.22 1.932-1.22.35 0 .672.124.951.34L8.65 4.114l.14-.059c.115-.896.223-1.536.326-1.934C9.29 1.433 9.846 1 10.555 1h2.89c.347 0 .675.113.945.33.305.245.49.591.512.91l.276 1.808.149.06 1.331-1.003c.266-.233.6-.347.953-.347.36 0 .692.132 1.003.395 1.145 1.056 1.89 1.82 2.263 2.336.207.258.3.57.3.898 0 .321-.105.624-.29.88-.142.2-.371.499-.693.906-.12.152-.228.29-.324.415.038.087.075.174.11.261l1.798.275zm-3.307 1.517l-.186-.596a6.856 6.856 0 0 0-.466-1.113l-.285-.547.362-.5c.166-.23.409-.546.729-.952.167-.211.306-.39.418-.537-.302-.35-.798-.852-1.466-1.479l-2.025 1.526-.557-.286a7.036 7.036 0 0 0-1.026-.42l-.586-.192-.093-.609L12.997 3h-2.026a30.53 30.53 0 0 0-.27 1.903l-.075.64-.614.196a6.402 6.402 0 0 0-1.026.428l-.569.297-.507-.393L6.4 4.9a9.67 9.67 0 0 0-.54.5c-.411.405-.728.737-.94.98.477.588.87 1.1 1.18 1.54l.355.509-.296.545a5.39 5.39 0 0 0-.43 1.01l-.184.604-.624.094L3 10.972v1.997l2.545.375.177.62c.1.353.25.716.452 1.088l.298.553-.368.508c-.166.23-.409.546-.729.952-.169.214-.31.395-.422.543.307.354.8.847 1.48 1.475l2.015-1.527.559.287c.307.157.65.298 1.026.42l.586.192.093.609.292 1.936h2.026c.081-.43.172-1.068.27-1.903l.076-.64.614-.196a6.402 6.402 0 0 0 1.025-.428l.572-.299.508.398 1.497 1.176c.147-.123.33-.29.543-.502.4-.394.712-.721.95-.997a28.917 28.917 0 0 1-1.185-1.546l-.354-.507.295-.543c.147-.27.295-.617.443-1.038l.2-.568.594-.09 1.922-.29v-1.998l-2.529-.388zM16 12c0 1.104-.39 2.047-1.172 2.828C14.047 15.609 13.104 16 12 16c-1.104 0-2.047-.39-2.828-1.172C8.391 14.047 8 13.104 8 12c0-1.104.39-2.047 1.172-2.828C9.953 8.391 10.896 8 12 8c1.104 0 2.047.39 2.828 1.172C15.609 9.953 16 10.896 16 12zm-2 0c0-.573-.18-1.007-.586-1.414C13.007 10.18 12.574 10 12 10c-.573 0-1.007.18-1.414.586-.406.407-.586.84-.586 1.414 0 .573.18 1.007.586 1.414.407.406.84.586 1.414.586.573 0 1.007-.18 1.414-.586.406-.407.586-.84.586-1.414z"/></svg>