<svg xmlns="http://www.w3.org/2000/svg" width="16" height="16" viewBox="0 0 24 24"><path d="M15.332 12.002a3.21 3.21 0 0 0-.977-2.356 3.213 3.213 0 0 0-2.357-.977c-.92 0-1.706.326-2.357.977a3.21 3.21 0 0 0-.977 2.356c0 .92.326 1.705.977 2.356.651.65 1.437.976 2.357.976.92 0 1.706-.326 2.357-.976a3.21 3.21 0 0 0 .977-2.356zM22 10.582v2.89a.505.505 0 0 1-.103.3.396.396 0 0 1-.26.169l-2.41.365a8.176 8.176 0 0 1-.508 1.185c.304.434.768 1.032 1.394 1.796.087.104.13.212.13.324a.44.44 0 0 1-.117.3c-.234.321-.664.79-1.288 1.407-.625.616-1.033.924-1.224.924a.636.636 0 0 1-.338-.116l-1.797-1.407c-.382.2-.777.365-1.185.495-.14 1.18-.265 1.987-.379 2.421-.06.243-.217.365-.468.365h-2.89a.493.493 0 0 1-.319-.11.385.385 0 0 1-.15-.28l-.365-2.396a8.03 8.03 0 0 1-1.172-.481l-1.837 1.393a.469.469 0 0 1-.325.116.448.448 0 0 1-.325-.143c-1.094-.99-1.81-1.719-2.149-2.188a.507.507 0 0 1 .012-.6c.13-.182.351-.47.663-.866.313-.395.547-.701.704-.918a6.433 6.433 0 0 1-.534-1.288l-2.383-.351a.41.41 0 0 1-.274-.164.496.496 0 0 1-.103-.306v-2.89c0-.104.034-.204.103-.3a.392.392 0 0 1 .247-.169l2.422-.365c.121-.399.29-.798.509-1.198A29.338 29.338 0 0 0 3.887 6.7a.49.49 0 0 1-.13-.311c0-.087.039-.187.117-.3.225-.312.653-.779 1.283-1.4.63-.62 1.04-.931 1.23-.931.114 0 .227.043.339.13L8.523 5.28c.382-.2.777-.365 1.185-.495.139-1.18.265-1.987.378-2.421.061-.243.218-.365.469-.365h2.89c.121 0 .228.037.319.11a.385.385 0 0 1 .15.28l.365 2.396c.425.139.816.3 1.172.481l1.848-1.393a.421.421 0 0 1 .312-.116.5.5 0 0 1 .325.13c1.12 1.033 1.836 1.77 2.149 2.212a.417.417 0 0 1 .091.287.505.505 0 0 1-.103.3c-.13.182-.351.47-.663.866a29.57 29.57 0 0 0-.704.918c.226.434.404.86.534 1.276l2.383.365a.41.41 0 0 1 .274.164.496.496 0 0 1 .103.306z"/></svg>