<svg xmlns="http://www.w3.org/2000/svg" width="16" height="16" viewBox="0 0 24 24"><path d="M16 17.414V21a1 1 0 0 1-2 0v-6.039a.955.955 0 0 1 .961-.961H21a1 1 0 0 1 0 2h-3.586l5.298 5.293a1 1 0 0 1-1.414 1.414L16 17.414zm0-10.828l5.298-5.293a1 1 0 0 1 1.414 1.414L17.414 8H21a1 1 0 0 1 0 2h-6.039A.955.955 0 0 1 14 9.04V3a1 1 0 0 1 2 0v3.586zM8.005 17.414l-5.298 5.293a1 1 0 1 1-1.414-1.414L6.59 16H3.005a1 1 0 0 1 0-2h6.039a.955.955 0 0 1 .961.961V21a1 1 0 0 1-2 0v-3.586zm0-10.828V3a1 1 0 0 1 2 0v6.04a.955.955 0 0 1-.961.96H3.005a1 1 0 1 1 0-2h3.586L1.293 2.707a1 1 0 1 1 1.414-1.414l5.298 5.293z"/></svg>