<svg xmlns="http://www.w3.org/2000/svg" width="16" height="16" viewBox="0 0 24 24"><path d="M24,4 L24,18 C24,19.1045695 23.1045695,20 22,20 L2,20 C0.8954305,20 0,19.1045695 0,18 L0,4 C0,2.8954305 0.8954305,2 2,2 L22,2 C23.1045695,2 24,2.8954305 24,4 Z M22,4 L2,4 L2,18 L22,18 L22,4 Z M14,21 C14,21.5522847 14.4477153,22 15,22 L15.5,22 C15.7761424,22 16,22.2238576 16,22.5 C16,22.7761424 15.7761424,23 15.5,23 L8.5,23 C8.22385763,23 8,22.7761424 8,22.5 C8,22.2238576 8.22385763,22 8.5,22 L9,22 C9.55228475,22 10,21.5522847 10,21 L10,20.5 L14,20.5 L14,21 Z"/></svg>