<svg xmlns="http://www.w3.org/2000/svg" width="16" height="16" viewBox="0 0 24 24"><path d="M5 18.5V20a1 1 0 0 0 1 1h14a1 1 0 0 0 1-1V4a1 1 0 0 0-1-1H6a1 1 0 0 0-1 1v1.5H3V4a3 3 0 0 1 3-3h14a3 3 0 0 1 3 3v16a3 3 0 0 1-3 3H6a3 3 0 0 1-3-3v-1.5h2zM2.75 7h2.5a.75.75 0 0 1 0 1.5h-2.5a.75.75 0 0 1 0-1.5zm0 4h2.5a.75.75 0 1 1 0 1.5h-2.5a.75.75 0 1 1 0-1.5zm0 4h2.5a.75.75 0 1 1 0 1.5h-2.5a.75.75 0 1 1 0-1.5zm10.5-9.5c1.917 0 3.5 1.443 3.5 3.25S15.167 12 13.25 12s-3.5-1.443-3.5-3.25 1.583-3.25 3.5-3.25zm0 1.5c-1.124 0-2 .808-2 1.75s.876 1.75 2 1.75 2-.808 2-1.75-.876-1.75-2-1.75zm0 6c2.187 0 3.86.746 4.784 2.197.527.828.716 1.693.716 2.272 0 .551-.398 1.031-.933 1.031H8.681c-.533 0-.93-.477-.931-1.073.017-.287.026-.38.09-.684a4.69 4.69 0 0 1 .58-1.475l.044-.07C9.387 13.745 11.061 13 13.25 13zm3.94 4a3.269 3.269 0 0 0-.421-.997c-.616-.967-1.791-1.503-3.52-1.503s-2.904.536-3.516 1.498l-.018.028-.014.023A3.174 3.174 0 0 0 9.32 17h7.87z"/></svg>