<svg xmlns="http://www.w3.org/2000/svg" width="16" height="16" viewBox="0 0 24 24"><path d="M8 18c1.2 0 2.3 1 2.3 2.3 0 1.2-1 2.2-2.3 2.2-1.2 0-2.3-1-2.3-2.3C5.8 19 6.8 18 8 18zm0-8.3c1.2 0 2.3 1 2.3 2.3 0 1.2-1 2.3-2.3 2.3-1.2 0-2.3-1-2.3-2.3 0-1.2 1-2.3 2.3-2.3zm0-8.2c1.2 0 2.3 1 2.3 2.3C10.3 5 9.3 6 8 6 6.8 6 5.7 5 5.7 3.7c0-1.2 1-2.2 2.3-2.2zM16.5 18c1.2 0 2.3 1 2.3 2.3 0 1.2-1 2.2-2.3 2.2-1.2 0-2.3-1-2.3-2.3 0-1.2 1-2.2 2.3-2.2zm0-8.3c1.2 0 2.3 1 2.3 2.3 0 1.2-1 2.3-2.3 2.3-1.2 0-2.3-1-2.3-2.3 0-1.2 1-2.3 2.3-2.3zm0-8.2c1.2 0 2.3 1 2.3 2.3 0 1.2-1 2.2-2.3 2.2-1.2 0-2.3-1-2.3-2.3 0-1.2 1-2.2 2.3-2.2z"/></svg>
