<svg xmlns="http://www.w3.org/2000/svg" width="16" height="16" viewBox="0 0 24 24"><defs/><title>Dropdown</title><path d="M22 0a2 2 0 012 1.85V6a2 2 0 01-.27 1 2 2 0 01.26.85L24 8v14a2 2 0 01-1.85 2H2a2 2 0 01-2-1.85V8c0-.36.1-.7.27-1A2 2 0 010 6.15L0 6V2a2 2 0 011.85-2H22zm0 8H2v14h20V8zm0-6H2v4h20V2zm-8.31 16c.17 0 .31.34.31.75s-.14.75-.31.75H4.3c-.17 0-.31-.34-.31-.75s.14-.75.31-.75h9.38zm-2.9-4c.11 0 .21.34.21.75s-.1.75-.22.75H4.22c-.12 0-.22-.34-.22-.75s.1-.75.22-.75h6.56zm1.93-4c.15 0 .28.34.28.75s-.13.75-.28.75H4.28c-.15 0-.28-.34-.28-.75s.13-.75.28-.75h8.44zM21 3l-1.74 1.88a.35.35 0 01-.52 0L17 3h4z"/></svg>
