<svg xmlns="http://www.w3.org/2000/svg" width="16" height="16" viewBox="0 0 24 24"><path d="M13.72 15.75a1 1 0 0 1-.55.28l-5.012.803a1 1 0 0 1-1.146-1.141l.782-5.015a1 1 0 0 1 .28-.552l9.793-9.83a1 1 0 0 1 1.414-.003l4.23 4.212a1 1 0 0 1 .002 1.414L13.72 15.75zm7.67-10.535l-2.812-2.8-8.858 8.891-.52 3.335 3.332-.534 8.858-8.892zm-6.097.492a1 1 0 1 1 1.414-1.414l2.886 2.886a1 1 0 0 1-1.414 1.414l-2.886-2.886zM20 15.037V19a4 4 0 0 1-4 4H5a4 4 0 0 1-4-4V8a4 4 0 0 1 4-4h4a1 1 0 1 1 0 2H5a2 2 0 0 0-2 2v11a2 2 0 0 0 2 2h11a2 2 0 0 0 2-2v-5a1 1 0 1 1 2 0v1.037z"/></svg>