<svg xmlns="http://www.w3.org/2000/svg" width="16" height="16" viewBox="0 0 24 24"><path d="M5.64 20.7h.1c.06.01.13.03.19.06l.09.05.18.13.19.11.31.2c1.5.85 3.2 1.33 4.93 1.4h.77c1.7-.07 3.37-.54 4.85-1.38l.31-.18.2-.13.2-.13.1-.06a.68.68 0 0 1 .77.15l.07.09.05.1c.13.25.07.57-.14.76l-.09.07-.22.15-.23.14-.36.21a11.97 11.97 0 0 1-5.5 1.55L12 24h-.4c-1.97-.07-3.89-.62-5.59-1.6l-.34-.2-.2-.13-.21-.14-.09-.07a.67.67 0 0 1 .36-1.15l.1-.01ZM22.62 7.37h.1c.2.04.38.16.48.34l.05.1.14.4c.36 1.08.56 2.21.6 3.36L24 12v.36c-.1 2.9-1.2 5.62-3.16 7.75l-.25.27-.08.07a.67.67 0 0 1-.3.12l-.1.01H20a.67.67 0 0 1-.29-.12l-.08-.07-.07-.08a.67.67 0 0 1-.01-.79l.07-.08.24-.26a10.59 10.59 0 0 0 2.78-6.83v-.78c-.05-.99-.22-1.96-.53-2.9l-.14-.4-.02-.09a.67.67 0 0 1 .58-.8l.08-.01ZM1.4 7.34h.07l.08.02.08.02.1.04c.25.15.38.44.33.73l-.03.1-.15.4a10.6 10.6 0 0 0-.52 2.92l-.01.43v.35a10.59 10.59 0 0 0 2.77 6.82l.24.25.07.09c.16.23.16.55-.01.78l-.07.09-.09.06a.67.67 0 0 1-.28.12h-.2a.67.67 0 0 1-.3-.12l-.09-.08-.24-.26A11.93 11.93 0 0 1 0 12.36L0 12v-.44c.05-1.3.3-2.57.76-3.78.1-.24.3-.4.53-.43l.1-.01ZM12.02 0h.4c1.52.06 2.98.4 4.34.98l.36.16.35.17c1.6.82 3 1.99 4.1 3.46l.24.32.05.09c.11.21.1.46-.03.66l-.07.09-9.27 9.27-.08.07a.67.67 0 0 1-.3.12h-.2a.67.67 0 0 1-.29-.12l-.08-.07L2.2 5.85l-.05-.08a.7.7 0 0 1 0-.61l.05-.1.24-.31A11.97 11.97 0 0 1 6.56 1.3l.35-.17.36-.16C8.62.39 10.07.06 11.56 0l.46-.01Zm.29 1.35h-.59l-.3.01-.41.03c-1.1.1-2.16.37-3.15.8l-.37.16-.35.17c-1.04.53-2 1.24-2.83 2.1l-.27.3-.2.24-.2.23 8.38 8.38 8.35-8.36-.2-.24-.2-.23-.26-.3a10.67 10.67 0 0 0-2.78-2.09l-.39-.19-.37-.17c-.99-.42-2.05-.69-3.15-.8l-.42-.02-.3-.02Z"/></svg>
