<svg xmlns="http://www.w3.org/2000/svg" width="16" height="16" viewBox="0 0 24 24"><path d="M3 4.414V8a1 1 0 1 1-2 0V1.961A.955.955 0 0 1 1.961 1H8a1 1 0 1 1 0 2H4.414l5.298 5.293a1 1 0 1 1-1.414 1.414L3 4.414zm0 15.172l5.298-5.293a1 1 0 1 1 1.414 1.414L4.414 21H8a1 1 0 0 1 0 2H1.961A.955.955 0 0 1 1 22.04V16a1 1 0 0 1 2 0v3.586zM21.005 4.414l-5.298 5.293a1 1 0 0 1-1.414-1.414L19.59 3h-3.586a1 1 0 1 1 0-2h6.039a.955.955 0 0 1 .961.961V8a1 1 0 0 1-2 0V4.414zm0 15.172V16a1 1 0 1 1 2 0v6.04a.955.955 0 0 1-.961.96h-6.039a1 1 0 1 1 0-2h3.586l-5.298-5.293a1 1 0 0 1 1.414-1.414l5.298 5.293z"/></svg>