<svg xmlns="http://www.w3.org/2000/svg" width="16" height="16" viewBox="0 0 24 24"><path d="M12 20A12.99 12.99 0 0 1 .99 13.916c-.19-.302-.627-1.11-.63-1.91-.003-.806.43-1.603.62-1.905A12.991 12.991 0 0 1 12 4c4.654 0 8.737 2.446 11.034 6.123.187.298.487 1.103.48 1.908-.008.8-.323 1.598-.515 1.903A12.99 12.99 0 0 1 12 20zm9.8-8A11 11 0 0 0 12 6a11 11 0 0 0-9.8 6 11 11 0 0 0 9.8 6 11 11 0 0 0 9.8-6z"/><path d="M8.686 11.63l.817-.234A3.752 3.752 0 0 1 12 7.713V7a3.5 3.5 0 0 0-3.314 4.63zM12 16a5.5 5.5 0 1 1 0-11 5.5 5.5 0 0 1 0 11z"/></svg>