<svg xmlns="http://www.w3.org/2000/svg" width="16" height="16" viewBox="0 0 24 24"><path d="M21,17 L21,19 C21,19.5522847 20.5522847,20 20,20 L18,20 L18,22 C18,22.5522847 17.5522847,23 17,23 L2,23 C1.44771525,23 1,22.5522847 1,22 L1,9 C1,8.44771525 1.44771525,8 2,8 L4,8 L4,6 C4,5.44771525 4.44771525,5 5,5 L7,5 L7,3 C7,2.44771525 7.44771525,2 8,2 L23,2 C23.5522847,2 24,2.44771525 24,3 L24,16 C24,16.5522847 23.5522847,17 23,17 L21,17 Z M21,15.667 L22.667,15.667 L22.667,3.333 L8.333,3.333 L8.333,5 L20,5 C20.5522847,5 21,5.44771525 21,6 L21,15.667 Z M5.333,8 L17,8 C17.5522847,8 18,8.44771525 18,9 L18,18.667 L19.667,18.667 L19.667,6.333 L5.333,6.333 L5.333,8 Z M2.333,19.6598687 L2.333,21.667 L16.667,21.667 L16.667,20.3146619 C16.625924,20.3030997 16.5853634,20.2874062 16.5458528,20.2674061 L12.8032923,18.3729383 L9.76227434,19.6133506 C9.51450611,19.7144138 9.23032232,19.6575878 9.04046981,19.4690172 L6.12073667,16.5689981 L2.59533309,19.5248791 C2.51636889,19.5910868 2.4265708,19.6358765 2.333,19.6598687 Z M2.333,18.0043364 L5.73030977,15.1558559 C5.99453165,14.9343185 6.384068,14.9507393 6.62870799,15.1937275 L9.66721466,18.2117182 L12.5812162,17.0231151 C12.7601159,16.950143 12.9618706,16.9583487 13.1342534,17.0456082 L16.667,18.833869 L16.667,9.333 L2.333,9.333 L2.333,18.0043364 Z M12.1665,15.833 C10.6938327,15.833 9.5,14.6391673 9.5,13.1665 C9.5,11.6938327 10.6938327,10.5 12.1665,10.5 C13.6391673,10.5 14.833,11.6938327 14.833,13.1665 C14.833,14.6391673 13.6391673,15.833 12.1665,15.833 Z M12.1665,14.5 C12.9029717,14.5 13.5,13.9029717 13.5,13.1665 C13.5,12.4300283 12.9029717,11.833 12.1665,11.833 C11.4300283,11.833 10.833,12.4300283 10.833,13.1665 C10.833,13.9029717 11.4300283,14.5 12.1665,14.5 Z"/></svg>