<svg xmlns="http://www.w3.org/2000/svg" width="16" height="16" viewBox="0 0 24 24"><title>Gender</title><path d="M9.98 11h.1c.52.07.92.59.92 1.21 0 .14-.02.28-.06.42l-.05.13-1.97 8.2-.05.15a2 2 0 01-1.7 1.26H4.82a2 2 0 01-1.7-1.26l-.05-.15-1.96-8.2-.05-.13c-.17-.58.04-1.22.5-1.5a.9.9 0 01.35-.12l.11-.01h7.96zm7 0h2.03a2 2 0 011.86 1.27l.05.15 1.97 8.2c.07.17.11.36.11.54 0 .63-.4 1.15-.91 1.21h-8.07a.9.9 0 01-.45-.12c-.47-.28-.68-.93-.5-1.5l.04-.13 1.96-8.2A2 2 0 0116.82 11h.16zm-7.95 1.8H2.97l1.82 7.65.02.03a.2.2 0 00.12.1H7l.05-.01a.2.2 0 00.09-.05l.03-.04.01-.03 1.84-7.65zm7.95 0a.2.2 0 00-.17.1l-.02.03-1.82 7.65h6.06l-1.84-7.65-.01-.04a.2.2 0 00-.12-.08L19 12.8h-2.03zM5.93 1a4.25 4.25 0 110 8.5 4.25 4.25 0 010-8.5zm12.14 0a4.25 4.25 0 110 8.5 4.25 4.25 0 010-8.5zM5.93 2.82a2.43 2.43 0 100 4.86 2.43 2.43 0 000-4.86zm12.14 0a2.43 2.43 0 100 4.86 2.43 2.43 0 000-4.86z"/></svg>
