<svg xmlns="http://www.w3.org/2000/svg" width="16" height="16" viewBox="0 0 24 24"><title>Globe</title><path d="M12 0a12 12 0 110 24 12 12 0 010-24zm0 1.5a10.5 10.5 0 100 21 10.5 10.5 0 000-21z"/><path d="M11.65 1.17c1.4 1.18.25 1.24-.25 1.98.39.08.23.84.6.69.35-.11.77-1.39.98-1.25.48.3 1.68.97 1.77 1.45.08.4-.43 1.3-.71 1.33-1.65.17-2.05 1.04-2.62 1.68-.45.5-.63.6-1.09 1.1-.16.66-.5 1.37-.68.58-.02-.12-.14-.8-.25-.84-.98-.33-1.47.02-1.56.89.27 1.51.82.06 1.04.55.52 1.08 1.25 2.73 2.86 2.33.71-.18 1.71.56 2.49.9 1.42.65 1.88 2 4.14 2.23.93.1.65.71.3 1.61-.67 1.78-2 2.88-3.52 4.12-.5.4-2.26 1.84-2.57 1.4-.23-.57-.23-1.83-.24-2.4-.04-1.17-.18-2.2-1.25-2.96-1-.72-1.68-1.57-.88-2.85.12-.3.51-1.08.34-1.33-1.03-.5-1.8-1.2-2.6-1.82-2.1-.89-2.5-3.98-1.22-5.96.47-.74.9-1.48 1.35-2.5.11-1 2.13-1.34 3.57-.93z"/></svg>
