<svg xmlns="http://www.w3.org/2000/svg" width="16" height="16" viewBox="0 0 40 40"><path d="M38 36.586V3a1 1 0 0 0-1-1H3a1 1 0 0 0-1 1v33.586l22.5-22.5 1.414 1.414-4.5 4.5L38 36.586zM36.586 38L20 21.414 3.414 38h33.172zM3 0h34a3 3 0 0 1 3 3v34a3 3 0 0 1-3 3H3a3 3 0 0 1-3-3V3a3 3 0 0 1 3-3zm15.584 10.188c.088.468.136.958.136 1.47 0 3.998-2.677 6.842-6.72 6.842-3.867 0-7-3.133-7-7s3.133-7 7-7c1.89 0 3.47.696 4.681 1.824l-1.973 1.974v-.005c-.735-.7-1.667-1.059-2.708-1.059-2.31 0-4.187 1.952-4.187 4.262 0 2.31 1.877 4.265 4.187 4.265 2.096 0 3.522-1.199 3.815-2.843H12v-2.73h6.584zM23 10a7 7 0 0 1 14 0c0 1.264-.318 2.48-.925 3.478-.074.123-.434.697-.514.826a35.44 35.44 0 0 0-2.834 5.575c-.344.851-.78 2.378-1.297 4.553l-.052.16c-.518 1.218-2.243 1.218-2.761 0l-.052-.158c-.519-2.164-.954-3.683-1.294-4.533a35.635 35.635 0 0 0-2.086-4.37 32.567 32.567 0 0 0-1.036-1.712l-.234-.36C23.305 12.519 23 11.293 23 10zm7.873 9.13a37.432 37.432 0 0 1 2.988-5.88c.086-.14.44-.702.505-.81.41-.674.634-1.531.634-2.44a5 5 0 0 0-10 0c0 .932.212 1.783.594 2.371l.235.364c.108.166.207.323.31.486.264.424.523.858.788 1.326a37.629 37.629 0 0 1 2.202 4.611c.256.641.543 1.562.866 2.77.325-1.221.617-2.151.878-2.798zM30 13a3 3 0 1 1 0-6 3 3 0 0 1 0 6zm0-2a1 1 0 1 0 0-2 1 1 0 0 0 0 2z"/></svg>