<svg xmlns="http://www.w3.org/2000/svg" width="16" height="16" viewBox="0 0 24 24"><path d="M22,8 C22,8.55228475 21.5522847,9 21,9 L7,9 C6.44771525,9 6,8.55228475 6,8 L6,4 C6,3.44771525 6.44771525,3 7,3 L21,3 C21.5522847,3 22,3.44771525 22,4 L22,8 Z M20,7 L20,5 L8,5 L8,7 L20,7 Z M1.21966991,7.55300325 L2.85600649,5.91666667 L1.21966991,4.28033009 C0.926776695,3.98743687 0.926776695,3.51256313 1.21966991,3.21966991 C1.51256313,2.9267767 1.98743687,2.9267767 2.28033009,3.21966991 L4.44699675,5.38633658 C4.73988997,5.6792298 4.73988997,6.15410353 4.44699675,6.44699675 L2.28033009,8.61366342 C1.98743687,8.90655664 1.51256313,8.90655664 1.21966991,8.61366342 C0.926776695,8.3207702 0.926776695,7.84589647 1.21966991,7.55300325 Z M7,11 L21,11 C21.5522847,11 22,11.4477153 22,12 L22,12 C22,12.5522847 21.5522847,13 21,13 L7,13 C6.44771525,13 6,12.5522847 6,12 L6,12 C6,11.4477153 6.44771525,11 7,11 Z M7,15 L19,15 C19.5522847,15 20,15.4477153 20,16 L20,16 C20,16.5522847 19.5522847,17 19,17 L7,17 C6.44771525,17 6,16.5522847 6,16 L6,16 C6,15.4477153 6.44771525,15 7,15 Z M7,19 L20,19 C20.5522847,19 21,19.4477153 21,20 L21,20 C21,20.5522847 20.5522847,21 20,21 L7,21 C6.44771525,21 6,20.5522847 6,20 L6,20 C6,19.4477153 6.44771525,19 7,19 Z"/></svg>