<svg xmlns="http://www.w3.org/2000/svg" width="16" height="16" viewBox="0 0 24 24"><path d="M4.125 9.781c0 5.045 5.316 8.433 7.875 9.77 2.56-1.337 7.875-4.725 7.875-9.77a3.66 3.66 0 0 0-3.656-3.656c-2.016 0-3.17.905-3.657 2.883-.074.304-.252.562-.562.562-.31 0-.485-.259-.563-.562-.502-1.97-1.64-2.883-3.656-2.883a3.66 3.66 0 0 0-3.656 3.656zM16.219 4A5.786 5.786 0 0 1 22 9.781c0 5.193-3.972 9.104-9.29 11.792a1.529 1.529 0 0 1-.71.177c-.238 0-.436-.051-.708-.17C5.956 18.87 2 14.972 2 9.782A5.787 5.787 0 0 1 7.781 4c1.638 0 3.15.697 4.219 1.857A5.728 5.728 0 0 1 16.219 4z"/></svg>