<svg xmlns="http://www.w3.org/2000/svg" width="16" height="16" viewBox="0 0 24 24"><path d="M10.5 22.503a.5.5 0 0 1-.5.5H4.5a.5.5 0 0 1-.5-.5v-9.497a.5.5 0 0 1 .168-.374l7.5-6.667a.5.5 0 0 1 .664 0l7.5 6.667a.5.5 0 0 1 .168.374v9.497a.5.5 0 0 1-.5.5H14a.5.5 0 0 1-.5-.5v-4.5h-3v4.5zm-2-6.5h7v5H18V13.68l-6-5.333-6 5.333v7.324h2.5v-5zm-6.668-3.298a.5.5 0 0 1-.664 0L.42 12.04a.5.5 0 0 1 0-.747l11.248-9.998a.5.5 0 0 1 .664 0l11.248 9.998a.5.5 0 0 1 0 .747l-.748.665a.5.5 0 0 1-.664 0L12 3.667 1.832 12.705z"/></svg>