<svg xmlns="http://www.w3.org/2000/svg" width="16" height="16" viewBox="0 0 24 24">
<path d="M4,3 L20,3 C21.1045695,3 22,3.8954305 22,5 L22,19 C22,20.1045695 21.1045695,21 20,21 L4,21 C2.8954305,21 2,20.1045695 2,19 L2,5 C2,3.8954305 2.8954305,3 4,3 Z M4,5 L4,19 L20,19 L20,5 L4,5 Z M12.9541796,10.4562565 C13.1394215,10.0857726 13.5899263,9.93560434 13.9604102,10.1208463 C14.3308941,10.3060882 14.4810623,10.756593 14.2958204,11.1270769 L11.0458204,17.6270769 C10.8605785,17.9975607 10.4100737,18.147729 10.0395898,17.9624871 C9.66910593,17.7772451 9.51893767,17.3267403 9.70417961,16.9562565 L12.9541796,10.4562565 Z M8.73866342,15.6780032 C9.03155664,15.9708965 9.03155664,16.4457702 8.73866342,16.7386634 C8.4457702,17.0315566 7.97089647,17.0315566 7.67800325,16.7386634 L5.51133658,14.5719968 C5.21844336,14.2791035 5.21844336,13.8042298 5.51133658,13.5113366 L7.67800325,11.3446699 C7.97089647,11.0517767 8.4457702,11.0517767 8.73866342,11.3446699 C9.03155664,11.6375631 9.03155664,12.1124369 8.73866342,12.4053301 L7.10232684,14.0416667 L8.73866342,15.6780032 Z M15.2613366,15.6780032 L16.8976732,14.0416667 L15.2613366,12.4053301 C14.9684434,12.1124369 14.9684434,11.6375631 15.2613366,11.3446699 C15.5542298,11.0517767 16.0291035,11.0517767 16.3219968,11.3446699 L18.4886634,13.5113366 C18.7815566,13.8042298 18.7815566,14.2791035 18.4886634,14.5719968 L16.3219968,16.7386634 C16.0291035,17.0315566 15.5542298,17.0315566 15.2613366,16.7386634 C14.9684434,16.4457702 14.9684434,15.9708965 15.2613366,15.6780032 Z M4,7 L20,7 L20,9 L4,9 L4,7 Z"/>
</svg>