<svg xmlns="http://www.w3.org/2000/svg" width="16" height="16" viewBox="0 0 24 24"><path d="M13 3.353V8a1 1 0 0 1-2 0V3.353L9.64 4.716a.955.955 0 0 1-1.358 0 .977.977 0 0 1 0-1.373L11.32.284a.955.955 0 0 1 1.36 0l3.038 3.06a.977.977 0 0 1 0 1.372.955.955 0 0 1-1.359 0L13 3.353zm-2 17.294V16a1 1 0 0 1 2 0v4.647l1.36-1.363a.955.955 0 0 1 1.358 0 .977.977 0 0 1 0 1.373l-3.038 3.059a.955.955 0 0 1-1.36 0l-3.038-3.06a.977.977 0 0 1 0-1.372.955.955 0 0 1 1.359 0L11 20.647zM1 13a1 1 0 0 1 0-2h3a1 1 0 0 1 0 2H1zm6 0a1 1 0 0 1 0-2h3a1 1 0 0 1 0 2H7zm7 0a1 1 0 0 1 0-2h3a1 1 0 0 1 0 2h-3zm6 0a1 1 0 0 1 0-2h3a1 1 0 0 1 0 2h-3z"/></svg>