<svg xmlns="http://www.w3.org/2000/svg" width="16" height="16" viewBox="0 0 24 24"><path d="M12 0c3.26 0 3.667.012 4.947.072 1.277.059 2.148.261 2.913.558a5.847 5.847 0 0 1 2.126 1.384A5.89 5.89 0 0 1 23.37 4.14c.296.764.498 1.636.558 2.913C23.985 8.333 24 8.74 24 12s-.012 3.667-.072 4.947c-.059 1.277-.262 2.148-.558 2.913a5.86 5.86 0 0 1-1.384 2.126 5.898 5.898 0 0 1-2.126 1.384c-.765.296-1.636.498-2.913.558-1.28.057-1.687.072-4.947.072s-3.667-.012-4.947-.072c-1.277-.059-2.147-.262-2.913-.558a5.868 5.868 0 0 1-2.126-1.384A5.885 5.885 0 0 1 .63 19.86c-.297-.765-.498-1.636-.558-2.913C.015 15.667 0 15.26 0 12s.012-3.667.072-4.947C.131 5.775.333 4.905.63 4.14a5.855 5.855 0 0 1 1.384-2.126A5.876 5.876 0 0 1 4.14.63C4.905.333 5.775.132 7.053.072 8.333.015 8.74 0 12 0zm4.85 2.231c-1.265-.055-1.647-.071-4.895-.101-3.209 0-3.584.015-4.859.06-1.17.06-1.801.255-2.221.421-.569.209-.96.479-1.379.898-.421.421-.69.811-.9 1.381-.165.42-.359 1.064-.42 2.234-.045 1.275-.061 1.665-.061 4.861 0 3.195.016 3.584.061 4.844.061 1.17.255 1.815.42 2.235.21.556.479.961.9 1.38.419.42.81.675 1.379.899.42.165 1.065.36 2.236.421 1.273.059 1.648.074 4.859.074 3.21 0 3.585-.013 4.859-.07 1.17-.053 1.815-.249 2.235-.413a3.744 3.744 0 0 0 1.38-.896c.42-.422.675-.82.899-1.382.165-.422.36-1.057.421-2.227.059-1.265.074-1.646.074-4.85 0-3.204-.013-3.584-.07-4.85-.053-1.17-.249-1.805-.413-2.227a3.707 3.707 0 0 0-.896-1.381 3.727 3.727 0 0 0-1.382-.896c-.422-.166-1.057-.36-2.227-.415zM12 5.838a6.162 6.162 0 1 1 0 12.324 6.162 6.162 0 1 1 0-12.324zM12 16c2.21 0 4-1.79 4-4s-1.79-4-4-4-4 1.79-4 4 1.79 4 4 4zm7.846-10.405a1.441 1.441 0 0 1-2.88 0 1.44 1.44 0 0 1 2.88 0z"/></svg>