<svg xmlns="http://www.w3.org/2000/svg" width="16" height="16" viewBox="0 0 24 24"><title>Legal</title><path d="M2.95 8.52a1.24 1.24 0 011.74 0l.3.3 5.82-5.83-.29-.3a1.24 1.24 0 010-1.74l.59-.59a1.24 1.24 0 011.74 0l5.25 5.25c.48.48.48 1.26 0 1.75l-.58.58c-.49.48-1.27.48-1.75 0l-2.33 2.33 3.54 3.55a1.24 1.24 0 011.41.24l5.25 5.25c.48.48.48 1.26 0 1.74l-.59.59c-.48.48-1.26.48-1.74 0l-5.25-5.25a1.24 1.24 0 01-.24-1.4l-3.55-3.55-2.33 2.33c.48.48.48 1.26 0 1.75l-.58.58c-.49.48-1.27.48-1.75 0l-5.25-5.25a1.24 1.24 0 010-1.74l.59-.59zM1 24v-1h1.09a1.5 1.5 0 011.41-2h7a1.5 1.5 0 011.41 2H13v1H1z"/></svg>
