<svg xmlns="http://www.w3.org/2000/svg" width="16" height="16" viewBox="0 0 24 24"><path d="M12.721 11.279a2.55 2.55 0 0 0-3.606 0l-4.328 4.327a2.55 2.55 0 1 0 3.607 3.607l2.163-2.164A1.02 1.02 0 0 1 12 18.492l-2.164 2.164a4.59 4.59 0 0 1-6.492-6.492l4.328-4.328a4.59 4.59 0 0 1 6.492 0 1.02 1.02 0 0 1-1.443 1.443zM11.28 12.72a2.55 2.55 0 0 0 3.606 0l4.328-4.327a2.55 2.55 0 0 0-3.607-3.607l-2.163 2.164A1.02 1.02 0 0 1 12 5.508l2.164-2.164a4.59 4.59 0 1 1 6.492 6.492l-4.328 4.328a4.59 4.59 0 0 1-6.492 0 1.02 1.02 0 0 1 1.443-1.443z"/></svg>