<svg xmlns="http://www.w3.org/2000/svg" width="16" height="16" viewBox="0 0 24 24"><path d="M2 3h2a1 1 0 0 1 1 1v2a1 1 0 0 1-1 1H2a1 1 0 0 1-1-1V4a1 1 0 0 1 1-1zm0 7h2a1 1 0 0 1 1 1v2a1 1 0 0 1-1 1H2a1 1 0 0 1-1-1v-2a1 1 0 0 1 1-1zm0 7h2a1 1 0 0 1 1 1v2a1 1 0 0 1-1 1H2a1 1 0 0 1-1-1v-2a1 1 0 0 1 1-1zM8 3h14a1 1 0 0 1 1 1v2a1 1 0 0 1-1 1H8a1 1 0 0 1-1-1V4a1 1 0 0 1 1-1zm0 1v2h14V4H8zm0 6h14a1 1 0 0 1 1 1v2a1 1 0 0 1-1 1H8a1 1 0 0 1-1-1v-2a1 1 0 0 1 1-1zm0 1v2h14v-2H8zm0 6h14a1 1 0 0 1 1 1v2a1 1 0 0 1-1 1H8a1 1 0 0 1-1-1v-2a1 1 0 0 1 1-1zm0 1v2h14v-2H8z"/></svg>