<svg xmlns="http://www.w3.org/2000/svg" width="16" height="16" viewBox="0 0 24 24"><defs/><title>Location</title><path d="M12 0a7.48 7.48 0 016.5 11.17l-.54.88a40.95 40.95 0 00-2.75 5.25l-.14.35-.15.35c-.37.9-.83 2.54-1.39 4.86l-.05.17a1.61 1.61 0 01-2.96 0l-.06-.17-.18-.75-.17-.69c-.38-1.44-.7-2.53-.97-3.24l-.06-.16a41.22 41.22 0 00-2.24-4.66c-.27-.47-.53-.9-.8-1.33l-.56-.88A7.48 7.48 0 0112 0zm0 2a5.48 5.48 0 00-4.84 8.06l.25.4.33.5a36.68 36.68 0 012.94 5.7l.25.62.15.39c.23.63.48 1.44.75 2.45l.16.62.08-.29c.34-1.29.65-2.3.92-3.01l.08-.2a41.54 41.54 0 012.97-5.9l.76-1.2A5.48 5.48 0 0012 2zm0 2.4a3.07 3.07 0 110 6.14 3.07 3.07 0 010-6.14zm0 2a1.07 1.07 0 100 2.14 1.07 1.07 0 000-2.14z"/></svg>
