<svg xmlns="http://www.w3.org/2000/svg" width="16" height="16" viewBox="0 0 24 24"><path d="M14.5 11.77V4.23c0-1.247-.913-2.23-2-2.23h-1c-1.087 0-2 .983-2 2.23v7.54c0 1.247.913 2.23 2 2.23h1c1.087 0 2-.983 2-2.23zm2 0c0 2.32-1.773 4.23-4 4.23h-1c-2.227 0-4-1.91-4-4.23V4.23C7.5 1.91 9.273 0 11.5 0h1c2.227 0 4 1.91 4 4.23v7.54z"/><path d="M11 22v-2.054C7.077 19.517 4 16.602 4 13a1 1 0 0 1 2 0c0 2.724 2.655 5 6 5s6-2.276 6-5a1 1 0 0 1 2 0c0 3.602-3.077 6.517-7 6.946V22h4.233a1 1 0 1 1 0 2H7a1 1 0 0 1 0-2h4z"/></svg>