<svg xmlns="http://www.w3.org/2000/svg" width="16" height="16" viewBox="0 0 24 24"><path d="M19.647 13H13v6.647l1.36-1.363a.955.955 0 0 1 1.358 0 .977.977 0 0 1 0 1.373l-3.038 3.059a.955.955 0 0 1-1.36 0l-3.038-3.06a.977.977 0 0 1 0-1.372.955.955 0 0 1 1.359 0L11 19.647V13H4.353l1.363 1.36a.955.955 0 0 1 0 1.358.977.977 0 0 1-1.373 0L1.284 12.68a.955.955 0 0 1 0-1.36l3.06-3.038a.977.977 0 0 1 1.372 0 .955.955 0 0 1 0 1.359L4.353 11H11V4.353L9.64 5.716a.955.955 0 0 1-1.358 0 .977.977 0 0 1 0-1.373l3.038-3.059a.955.955 0 0 1 1.36 0l3.038 3.06a.977.977 0 0 1 0 1.372.955.955 0 0 1-1.359 0L13 4.353V11h6.647l-1.363-1.36a.955.955 0 0 1 0-1.358.977.977 0 0 1 1.373 0l3.059 3.038a.955.955 0 0 1 0 1.36l-3.06 3.038a.977.977 0 0 1-1.372 0 .955.955 0 0 1 0-1.359L19.647 13z"/></svg>