<svg xmlns="http://www.w3.org/2000/svg" width="16" height="16" viewBox="0 0 24 24"><path d="M21 3a3 3 0 013 3v12a3 3 0 01-3 3H3a3 3 0 01-3-3V6a3 3 0 013-3h18zm0 2H3a1 1 0 00-1 1v12a1 1 0 001 1h18a1 1 0 001-1V6a1 1 0 00-1-1zm-7.312 2.71h1.632l.606 4.205c.064.465.123.937.18 1.564l.03.328h.036l.077-.667c.075-.621.145-1.12.228-1.662l.043-.275.516-3.492h1.392l.671 4.414c.062.406.12.816.176 1.302l.04.38h.037l.058-.656c.06-.613.126-1.114.203-1.644l.555-3.796h1.44l-1.56 8.904h-1.44l-.936-5.976h-.048l-.936 5.976h-1.44l-1.56-8.904zm-9.06 0l1.428 3.757.371 1.076c.055.16.105.315.151.465l.066.223h.036V7.71h1.332v8.88h-1.44l-1.74-4.344-.22-.59c-.097-.266-.19-.529-.263-.745l-.13-.393h-.035v6.072h-1.32V7.71h1.764zm8.628 0v1.44h-2.448v2.1h1.752v1.357h-1.752v2.58h2.556v1.404H9.128V7.71h4.128z"/></svg>