<svg xmlns="http://www.w3.org/2000/svg" width="16" height="16" viewBox="0 0 24 24"><path d="M8 4h14a1 1 0 0 1 0 2H8a1 1 0 1 1 0-2zm0 7h14a1 1 0 0 1 0 2H8a1 1 0 0 1 0-2zm0 7h14a1 1 0 0 1 0 2H8a1 1 0 0 1 0-2zM2.675 3.607l-.42.283a.38.38 0 0 1-.24.08.403.403 0 0 1-.225-.733l1.045-.675a.429.429 0 0 1 .254-.087c.225 0 .414.189.414.414v4.173a.418.418 0 0 1-.414.413.418.418 0 0 1-.414-.413V3.607zm-1.464 6.704c.233-.53.75-.924 1.55-.924 1.056 0 1.682.597 1.682 1.492 0 1.536-2.526 2.125-2.526 2.766h2.234c.204 0 .372.167.372.371a.373.373 0 0 1-.372.371h-2.78A.373.373 0 0 1 1 14.016c0-1.608 2.613-1.776 2.613-3.137 0-.407-.299-.764-.852-.764-.451 0-.698.247-.83.524a.402.402 0 0 1-.363.233.391.391 0 0 1-.357-.56zm1.926 7.12H1.672a.373.373 0 0 1-.371-.372c0-.204.167-.372.371-.372h2.333a.373.373 0 0 1 .277.62l-1.064 1.202c1.027.117 1.34.831 1.34 1.604 0 .998-.604 1.574-1.792 1.574-.758 0-1.356-.364-1.67-.809a.458.458 0 0 1-.065-.219c0-.21.175-.386.386-.386.131 0 .226.051.35.19.248.284.525.495.999.495.656 0 .962-.328.962-.845 0-.51-.212-.875-.868-.875h-.452a.38.38 0 0 1-.393-.379c0-.116.036-.182.095-.255l1.027-1.173z"/></svg>