<svg xmlns="http://www.w3.org/2000/svg" width="16" height="16" viewBox="0 0 24 24"><path d="M1,13 C0.44771525,13 0,12.5522847 0,12 C0,11.4477153 0.44771525,11 1,11 L4,11 C4.55228475,11 5,11.4477153 5,12 C5,12.5522847 4.55228475,13 4,13 L1,13 Z M7,13 C6.44771525,13 6,12.5522847 6,12 C6,11.4477153 6.44771525,11 7,11 L10,11 C10.5522847,11 11,11.4477153 11,12 C11,12.5522847 10.5522847,13 10,13 L7,13 Z M14,13 C13.4477153,13 13,12.5522847 13,12 C13,11.4477153 13.4477153,11 14,11 L17,11 C17.5522847,11 18,11.4477153 18,12 C18,12.5522847 17.5522847,13 17,13 L14,13 Z M20,13 C19.4477153,13 19,12.5522847 19,12 C19,11.4477153 19.4477153,11 20,11 L23,11 C23.5522847,11 24,11.4477153 24,12 C24,12.5522847 23.5522847,13 23,13 L20,13 Z M20,22 L20,17 L4,17 L4,22 C4,22.5522847 3.55228475,23 3,23 C2.44771525,23 2,22.5522847 2,22 L2,17 C2,15.8954305 2.8954305,15 4,15 L20,15 C21.1045695,15 22,15.8954305 22,17 L22,22 C22,22.5522847 21.5522847,23 21,23 C20.4477153,23 20,22.5522847 20,22 Z M4,2 L4,7 L20,7 L20,2 C20,1.44771525 20.4477153,1 21,1 C21.5522847,1 22,1.44771525 22,2 L22,7 C22,8.1045695 21.1045695,9 20,9 L4,9 C2.8954305,9 2,8.1045695 2,7 L2,2 C2,1.44771525 2.44771525,1 3,1 C3.55228475,1 4,1.44771525 4,2 Z"/></svg>