<svg xmlns="http://www.w3.org/2000/svg" width="16" height="16" viewBox="0 0 24 24"><path d="M21 17.997c0-.266-.824-1.394-1.817-2.245-.97-.832-1.74-1.116-1.804-1.051-.245.245-.45.504-.661.82-.102.152-.455.72-.54.848-.566.85-1.188 1.284-2.178 1.284-1.5 0-2.514-.757-4.707-2.952l-.044-.043C7.055 12.462 6.33 11.49 6.33 9.99c0-.983.435-1.6 1.285-2.163.13-.086.69-.43.837-.527.311-.206.565-.405.806-.64C9.663 6.255 6.874 3 6 3c-.882 0-2.72 1.779-3.022 3.21-.514 2.433.652 5.342 5.058 9.75 4.436 4.44 7.3 5.6 9.75 5.063C19.28 20.695 21 18.91 21 17.997zm2 0c0 1.933-2.435 4.464-4.786 4.98-3.202.702-6.716-.722-11.593-5.603-4.844-4.847-6.27-8.404-5.6-11.578C1.507 3.503 4.092 1 6 1c2.352 0 6.687 5.058 4.707 7.04l-.05.05c-.341.333-.693.608-1.104.88-.183.12-.743.464-.835.525-.344.228-.39.293-.39.496 0 .717.588 1.504 2.336 3.253 1.792 1.793 2.617 2.409 3.336 2.409.216 0 .284-.048.515-.394.06-.09.413-.66.54-.85a7.19 7.19 0 0 1 .91-1.122C17.945 11.304 23 15.633 23 17.997z"/></svg>