<svg xmlns="http://www.w3.org/2000/svg" width="16" height="16" viewBox="0 0 24 24"><path d="M4 5a2 2 0 0 0-2 2v10a2 2 0 0 0 2 2h16a2 2 0 0 0 2-2V7a2 2 0 0 0-2-2H4zm0-2h16a4 4 0 0 1 4 4v10a4 4 0 0 1-4 4H4a4 4 0 0 1-4-4V7a4 4 0 0 1 4-4zm13.5 10a3.5 3.5 0 1 1 0-7 3.5 3.5 0 0 1 0 7zm0-2a1.5 1.5 0 1 0 0-3 1.5 1.5 0 0 0 0 3zM6.95 13.404l-5.287 4.433a1 1 0 0 1-1.285-1.533l5.986-5.019a1 1 0 0 1 1.348.057l4.556 4.526 4.37-1.783a1 1 0 0 1 .83.034l6.018 3.047a1 1 0 1 1-.903 1.784l-5.612-2.84-4.56 1.86a1 1 0 0 1-1.083-.217L6.95 13.404z"/></svg>