<svg xmlns="http://www.w3.org/2000/svg" width="16" height="16" viewBox="0 0 24 24">
<path d="M10.7623802,15.2681235 L5.34748142,20.6830223 C4.92484448,21.1056592 4.23961463,21.1056592 3.8169777,20.6830223 C3.39434077,20.2603854 3.39434077,19.5751555 3.8169777,19.1525186 L9.23187648,13.7376198 L6.55349498,11.0592383 C5.95165222,10.4573955 5.95165222,9.48161563 6.55256775,8.88070132 C6.75753956,8.67519089 6.97437189,8.5023071 7.25905871,8.33323949 C8.2563034,7.81564852 9.38800453,7.76014396 10.6640762,8.13947997 C11.4681455,7.76194519 12.7845774,6.85757563 13.632084,6.0100691 L14.3973358,5.24481724 C14.7039737,4.93817942 14.6924598,4.97682673 14.663229,4.86052785 C14.6534852,4.82258321 14.6534852,4.82258321 14.6402979,4.7730459 C14.6042434,4.63736455 14.5850314,4.55676318 14.5788239,4.50917977 C14.3708891,3.61822994 14.6973624,2.26640913 15.3539007,1.60987092 C16.1670619,0.796709694 17.4854567,0.796709694 18.2986179,1.60987092 L22.8901291,6.20138207 C23.7032903,7.01454329 23.7032903,8.33293812 22.8901291,9.14609935 C22.2101572,9.82607119 20.9836383,10.0797692 19.8980294,9.84264848 C19.8325163,9.82558295 19.8325163,9.82558295 19.7763915,9.80996694 C19.6051894,9.76197809 19.6197902,9.76591474 19.5934531,9.76078308 C19.600616,9.76217873 19.5918255,9.76602138 19.2551828,10.1026642 L18.4899309,10.867916 C17.6405722,11.7172747 16.7374616,13.0309552 16.3614591,13.8324573 C16.7281696,15.0175379 16.6847336,15.8049229 16.2192181,17.1049227 C16.0873644,17.4348087 15.8689667,17.7273116 15.6202271,17.946505 C15.0183844,18.5483478 14.0426045,18.5483478 13.4407617,17.946505 L10.7623802,15.2681235 Z M14.4435766,16.1208928 C14.6898953,15.358914 14.6590915,14.9981549 14.3525666,14.1280124 L14.2363392,13.7980737 L14.3511216,13.4676296 C14.711157,12.4311326 15.9098658,10.619554 17.0757173,9.45370247 L17.8409692,8.68845061 C18.6037403,7.92567948 19.229307,7.65221971 19.9759511,7.79769996 C20.0837644,7.8187069 20.0526262,7.81031149 20.3161965,7.88419163 C20.3561407,7.89528907 20.3561407,7.89528907 20.3570427,7.89633422 C20.7935673,7.99144048 21.3266195,7.88118185 21.4759155,7.73188578 C21.5080282,7.69977315 21.5080282,7.64770827 21.4759155,7.61559563 L16.8844044,3.02408448 C16.8522917,2.99197184 16.8002269,2.99197184 16.7681142,3.02408448 C16.6239562,3.16824252 16.4691835,3.8091062 16.5385125,4.11432278 C16.5436329,4.14444581 16.5520345,4.17969342 16.5732182,4.25941244 C16.5868893,4.31068127 16.5868893,4.31068127 16.6028997,4.37300603 C16.8074238,5.18673271 16.605258,5.86532218 15.8115494,6.65903081 L15.0462975,7.42428267 C13.8841775,8.58640273 12.0721066,9.78511372 11.0344814,10.1481425 L10.701691,10.2645742 L10.3694653,10.146541 C9.4956707,9.83609929 8.84028908,9.81916911 8.34790086,10.0252171 L14.4435766,16.1208928 Z"/>
</svg>