<svg xmlns="http://www.w3.org/2000/svg" width="16" height="16" viewBox="0 0 24 24"><path d="M13.1 14.143v8.762C13.1 23.51 12.608 24 12 24c-.608 0-1.1-.49-1.1-1.095v-8.762H7.05a.549.549 0 0 1-.55-.548v-.328c0-.095.024-.184.067-.262.54-1.171.962-1.593 2.133-2.148.353-.73.825-2.688.825-4.38V5.38c0-1.21-.41-1.898-.825-2.19-.608 0-1.1-.49-1.1-1.096C7.6 1.49 8.092 1 8.7 1h6.6c.608 0 1.1.49 1.1 1.095s-.492 1.095-1.1 1.095c-.434.258-.825.981-.825 2.191v1.095c0 1.697.47 3.653.825 4.381 1.151.55 1.563.96 2.108 2.106a.543.543 0 0 1 .092.304v.328a.549.549 0 0 1-.55.548H13.1z"/></svg>