<svg xmlns="http://www.w3.org/2000/svg" width="16" height="16" viewBox="0 0 24 24"><path d="M8.25,18 L9.75,18 C9.88807119,18 10,18.1119288 10,18.25 L10,21.75 C10,21.8880712 9.88807119,22 9.75,22 L8.25,22 C8.11192881,22 8,21.8880712 8,21.75 L8,18.25 C8,18.1119288 8.11192881,18 8.25,18 Z M2.25,7 L3.75,7 C3.88807119,7 4,7.05596441 4,7.125 L4,9.875 C4,9.94403559 3.88807119,10 3.75,10 L2.25,10 C2.11192881,10 2,9.94403559 2,9.875 L2,7.125 C2,7.05596441 2.11192881,7 2.25,7 Z M14.25,4 L15.75,4 C15.8880712,4 16,4.11192881 16,4.25 L16,9.75 C16,9.88807119 15.8880712,10 15.75,10 L14.25,10 C14.1119288,10 14,9.88807119 14,9.75 L14,4.25 C14,4.11192881 14.1119288,4 14.25,4 Z M14.25,16 L15.75,16 C15.8880712,16 16,16.1119288 16,16.25 L16,21.75 C16,21.8880712 15.8880712,22 15.75,22 L14.25,22 C14.1119288,22 14,21.8880712 14,21.75 L14,16.25 C14,16.1119288 14.1119288,16 14.25,16 Z M2.25,14 L3.75,14 C3.88807119,14 4,14.1492384 4,14.3333333 L4,21.6666667 C4,21.8507616 3.88807119,22 3.75,22 L2.25,22 C2.11192881,22 2,21.8507616 2,21.6666667 L2,14.3333333 C2,14.1492384 2.11192881,14 2.25,14 Z M5.25,4 L6.75,4 C6.88807119,4 7,4.07461921 7,4.16666667 L7,9.83333333 C7,9.92538079 6.88807119,10 6.75,10 L5.25,10 C5.11192881,10 5,9.92538079 5,9.83333333 L5,4.16666667 C5,4.07461921 5.11192881,4 5.25,4 Z M17.25,2 L18.75,2 C18.8880712,2 19,2.09949228 19,2.22222222 L19,9.77777778 C19,9.90050772 18.8880712,10 18.75,10 L17.25,10 C17.1119288,10 17,9.90050772 17,9.77777778 L17,2.22222222 C17,2.09949228 17.1119288,2 17.25,2 Z M17.25,18 L18.75,18 C18.8880712,18 19,18.0497461 19,18.1111111 L19,21.8888889 C19,21.9502539 18.8880712,22 18.75,22 L17.25,22 C17.1119288,22 17,21.9502539 17,21.8888889 L17,18.1111111 C17,18.0497461 17.1119288,18 17.25,18 Z M5.25,16 L6.75,16 C6.88807119,16 7,16.0746192 7,16.1666667 L7,21.8333333 C7,21.9253808 6.88807119,22 6.75,22 L5.25,22 C5.11192881,22 5,21.9253808 5,21.8333333 L5,16.1666667 C5,16.0746192 5.11192881,16 5.25,16 Z M8.25,6 L9.75,6 C9.88807119,6 10,6.11192881 10,6.25 L10,9.75 C10,9.88807119 9.88807119,10 9.75,10 L8.25,10 C8.11192881,10 8,9.88807119 8,9.75 L8,6.25 C8,6.11192881 8.11192881,6 8.25,6 Z M20.25,6 L21.75,6 C21.8880712,6 22,6.11192881 22,6.25 L22,9.75 C22,9.88807119 21.8880712,10 21.75,10 L20.25,10 C20.1119288,10 20,9.88807119 20,9.75 L20,6.25 C20,6.11192881 20.1119288,6 20.25,6 Z M20.25,14 L21.75,14 C21.8880712,14 22,14.2238576 22,14.5 L22,21.5 C22,21.7761424 21.8880712,22 21.75,22 L20.25,22 C20.1119288,22 20,21.7761424 20,21.5 L20,14.5 C20,14.2238576 20.1119288,14 20.25,14 Z M12.5,11.5 L22,11.5 C22.2761424,11.5 22.5,11.7238576 22.5,12 C22.5,12.2761424 22.2761424,12.5 22,12.5 L12.5,12.5 L12.5,22.5 C12.5,22.7761424 12.2761424,23 12,23 C11.7238576,23 11.5,22.7761424 11.5,22.5 L11.5,12.5 L2,12.5 C1.72385763,12.5 1.5,12.2761424 1.5,12 C1.5,11.7238576 1.72385763,11.5 2,11.5 L11.5,11.5 L11.5,1.5 C11.5,1.22385763 11.7238576,1 12,1 C12.2761424,1 12.5,1.22385763 12.5,1.5 L12.5,11.5 Z"/></svg>