<svg xmlns="http://www.w3.org/2000/svg" width="16" height="16" viewBox="0 0 24 24"><path d="M11.286 18.571a1.714 1.714 0 1 1 0 3.429 1.714 1.714 0 0 1 0-3.429zM5 7.364c0-.813.26-1.636.783-2.47.521-.834 1.283-1.525 2.284-2.073 1-.547 2.169-.821 3.503-.821 1.24 0 2.336.229 3.285.687.95.457 1.683 1.08 2.201 1.867a4.58 4.58 0 0 1 .777 2.566c0 .727-.148 1.365-.443 1.912a5.853 5.853 0 0 1-1.052 1.418 76.819 76.819 0 0 1-2.188 2.009c-.291.265-.525.498-.7.699a2.837 2.837 0 0 0-.391.552 2.693 2.693 0 0 0-.2.5c-.046.167-.117.46-.21.88-.163.89-.673 1.334-1.528 1.334a1.56 1.56 0 0 1-1.123-.436c-.304-.291-.455-.723-.455-1.297 0-.718.11-1.34.333-1.867.223-.526.518-.988.886-1.386.367-.397.864-.87 1.488-1.418.548-.479.944-.84 1.187-1.084.244-.244.45-.515.616-.815.167-.3.25-.624.25-.975 0-.684-.254-1.262-.763-1.733-.509-.47-1.166-.705-1.97-.705-.941 0-1.634.237-2.079.712-.445.475-.82 1.174-1.129 2.098-.29.967-.843 1.45-1.655 1.45-.48 0-.884-.169-1.213-.507C5.164 8.123 5 7.758 5 7.364z"/></svg>