<svg xmlns="http://www.w3.org/2000/svg" width="16" height="16" viewBox="0 0 24 24"><path d="M12 24C5.373 24 0 18.627 0 12S5.373 0 12 0s12 5.373 12 12-5.373 12-12 12zm0-2c5.523 0 10-4.477 10-10S17.523 2 12 2 2 6.477 2 12s4.477 10 10 10z"/><path d="M7 8.68c0-.633.203-1.275.61-1.925.407-.65 1-1.188 1.78-1.615.78-.427 1.69-.64 2.73-.64.967 0 1.82.178 2.56.535.74.357 1.312.842 1.715 1.455a3.57 3.57 0 0 1 .605 2c0 .567-.115 1.063-.345 1.49a4.56 4.56 0 0 1-.82 1.105c-.317.31-.885.832-1.705 1.565a6.932 6.932 0 0 0-.545.545 2.21 2.21 0 0 0-.305.43c-.067.13-.119.26-.155.39-.037.13-.092.358-.165.685-.127.693-.523 1.04-1.19 1.04-.347 0-.638-.113-.875-.34-.237-.227-.355-.563-.355-1.01 0-.56.087-1.045.26-1.455.173-.41.403-.77.69-1.08.287-.31.673-.678 1.16-1.105.427-.373.735-.655.925-.845.19-.19.35-.402.48-.635.13-.233.195-.487.195-.76 0-.533-.198-.983-.595-1.35-.397-.367-.908-.55-1.535-.55-.733 0-1.273.185-1.62.555-.347.37-.64.915-.88 1.635-.227.753-.657 1.13-1.29 1.13-.374 0-.689-.132-.945-.395C7.128 9.272 7 8.987 7 8.68zm4.88 10.96c-.407 0-.762-.132-1.065-.395-.303-.263-.455-.632-.455-1.105 0-.42.147-.773.44-1.06.293-.287.653-.43 1.08-.43.42 0 .773.143 1.06.43.287.287.43.64.43 1.06 0 .467-.15.833-.45 1.1-.3.267-.647.4-1.04.4z"/></svg>