<svg xmlns="http://www.w3.org/2000/svg" width="16" height="16" viewBox="0 0 24 24"><path d="M12 24C5.373 24 0 18.627 0 12S5.373 0 12 0s12 5.373 12 12-5.373 12-12 12zM7 8.68c0 .307.128.592.385.855.256.263.571.395.945.395.633 0 1.063-.377 1.29-1.13.24-.72.533-1.265.88-1.635.347-.37.887-.555 1.62-.555.627 0 1.138.183 1.535.55.397.367.595.817.595 1.35 0 .273-.065.527-.195.76-.13.233-.29.445-.48.635s-.498.472-.925.845c-.487.427-.873.795-1.16 1.105a3.69 3.69 0 0 0-.69 1.08c-.173.41-.26.895-.26 1.455 0 .447.118.783.355 1.01.237.227.528.34.875.34.667 0 1.063-.347 1.19-1.04.073-.327.128-.555.165-.685.036-.13.088-.26.155-.39a2.21 2.21 0 0 1 .305-.43c.136-.157.318-.338.545-.545a59.862 59.862 0 0 0 1.705-1.565c.317-.31.59-.678.82-1.105.23-.427.345-.923.345-1.49a3.57 3.57 0 0 0-.605-2c-.403-.613-.975-1.098-1.715-1.455-.74-.357-1.593-.535-2.56-.535-1.04 0-1.95.213-2.73.64-.78.427-1.373.965-1.78 1.615C7.203 7.405 7 8.047 7 8.68zm4.88 11.31c.393 0 .74-.133 1.04-.4.3-.267.45-.633.45-1.1 0-.42-.143-.773-.43-1.06a1.44 1.44 0 0 0-1.06-.43c-.427 0-.787.143-1.08.43-.293.287-.44.64-.44 1.06 0 .473.152.842.455 1.105.303.263.658.395 1.065.395z"/></svg>