<svg xmlns="http://www.w3.org/2000/svg" width="16" height="16" viewBox="0 0 24 24"><path d="M20,8 L20,13.014801 C20,13.7126465 19.9695196,14.0389651 19.6723261,14.4188869 L17.3034198,17.4472136 C17.0550232,17.7627869 16.7818909,18 16.4089926,18 L14,18 L17,14 L14,14 C13.4477153,14 13,13.5522847 13,13 L13,8 C13,7.44771525 13.4477153,7 14,7 L19,7 C19.5522847,7 20,7.44771525 20,8 Z M11,8 L11,13.014801 C11,13.7126465 10.9695196,14.0389651 10.6723261,14.4188869 L8.30341977,17.4472136 C8.05502319,17.7627869 7.78189087,18 7.40899258,18 L5,18 L8,14 L5,14 C4.44771525,14 4,13.5522847 4,13 L4,8 C4,7.44771525 4.44771525,7 5,7 L10,7 C10.5522847,7 11,7.44771525 11,8 Z"/></svg>