<svg xmlns="http://www.w3.org/2000/svg" width="16" height="16" viewBox="0 0 24 24"><path d="M11.977 22.023a10.021 10.021 0 0 1-9.416-6.594 1.002 1.002 0 0 1 1.882-.685 8.018 8.018 0 0 0 15.009.157l-1.297.635a1.002 1.002 0 1 1-.881-1.8l3.286-1.61a1.002 1.002 0 0 1 1.275.344l1.997 2.999a1.003 1.003 0 0 1-1.668 1.111l-.769-1.155a10.022 10.022 0 0 1-9.418 6.598zM12.023 2c4.246 0 7.987 2.667 9.416 6.594a1.002 1.002 0 0 1-1.882.685 8.018 8.018 0 0 0-15.009-.157l1.297-.635a1.002 1.002 0 1 1 .881 1.8l-3.286 1.61a1.002 1.002 0 0 1-1.275-.344L.168 8.554a1.003 1.003 0 0 1 1.668-1.111l.769 1.155A10.022 10.022 0 0 1 12.023 2z"/></svg>