<svg xmlns="http://www.w3.org/2000/svg" width="16" height="16" viewBox="0 0 24 24"><path d="M4.156 8.035L12 13.554l7.844-5.519L12 2.517 4.156 8.035zm9.032-6.689l8.32 5.853c.656.462.656 1.21 0 1.673l-8.32 5.853c-.656.461-1.72.461-2.376 0l-8.32-5.853c-.656-.462-.656-1.21 0-1.673l8.32-5.853c.656-.461 1.72-.461 2.376 0zM4.87 11.547l-.713.502L12 17.568l7.844-5.519-.713-.502 1.426-1.003.713.502c.788.554.788 1.452 0 2.006l-7.844 5.519c-.787.554-2.065.554-2.852 0L2.73 13.052c-.788-.554-.788-1.452 0-2.006l.713-.502 1.426 1.003zm0 4.014l-.713.501L12 21.581l7.844-5.519-.713-.501 1.426-1.004.713.502c.788.554.788 1.453 0 2.007l-7.844 5.518c-.787.555-2.065.555-2.852 0L2.73 17.066c-.788-.554-.788-1.453 0-2.007l.713-.502 1.426 1.004z"/></svg>
