<svg xmlns="http://www.w3.org/2000/svg" width="16" height="16" viewBox="0 0 24 24"><path d="M8.68747016,19 L3,19 C2.44771525,19 2,18.5522847 2,18 C2,17.4477153 2.44771525,17 3,17 L8.68747016,17 C9.08750471,15.9756608 10.0840088,15.25 11.25,15.25 C12.4159912,15.25 13.4124953,15.9756608 13.8125298,17 L21,17 C21.5522847,17 22,17.4477153 22,18 C22,18.5522847 21.5522847,19 21,19 L13.8125298,19 C13.4124953,20.0243392 12.4159912,20.75 11.25,20.75 C10.0840088,20.75 9.08750471,20.0243392 8.68747016,19 Z M11.25,19.25 C11.9403559,19.25 12.5,18.6903559 12.5,18 C12.5,17.3096441 11.9403559,16.75 11.25,16.75 C10.5596441,16.75 10,17.3096441 10,18 C10,18.6903559 10.5596441,19.25 11.25,19.25 Z M4.68747016,7 L3,7 C2.44771525,7 2,6.55228475 2,6 C2,5.44771525 2.44771525,5 3,5 L4.68747016,5 C5.08750471,3.97566078 6.08400878,3.25 7.25,3.25 C8.41599122,3.25 9.41249529,3.97566078 9.81252984,5 L21,5 C21.5522847,5 22,5.44771525 22,6 C22,6.55228475 21.5522847,7 21,7 L9.81252984,7 C9.41249529,8.02433922 8.41599122,8.75 7.25,8.75 C6.08400878,8.75 5.08750471,8.02433922 4.68747016,7 Z M7.25,7.25 C7.94035594,7.25 8.5,6.69035594 8.5,6 C8.5,5.30964406 7.94035594,4.75 7.25,4.75 C6.55964406,4.75 6,5.30964406 6,6 C6,6.69035594 6.55964406,7.25 7.25,7.25 Z M14.6874702,13 L3,13 C2.44771525,13 2,12.5522847 2,12 C2,11.4477153 2.44771525,11 3,11 L14.6874702,11 C15.0875047,9.97566078 16.0840088,9.25 17.25,9.25 C18.4159912,9.25 19.4124953,9.97566078 19.8125298,11 L21,11 C21.5522847,11 22,11.4477153 22,12 C22,12.5522847 21.5522847,13 21,13 L19.8125298,13 C19.4124953,14.0243392 18.4159912,14.75 17.25,14.75 C16.0840088,14.75 15.0875047,14.0243392 14.6874702,13 Z M17.25,13.25 C17.9403559,13.25 18.5,12.6903559 18.5,12 C18.5,11.3096441 17.9403559,10.75 17.25,10.75 C16.5596441,10.75 16,11.3096441 16,12 C16,12.6903559 16.5596441,13.25 17.25,13.25 Z"/></svg>
