<svg xmlns="http://www.w3.org/2000/svg" width="16" height="16" viewBox="0 0 24 24"><title>Skype</title><path d="M10 .87A11.29 11.29 0 0123.03 13.9a6.7 6.7 0 01-9.13 9.13A11.29 11.29 0 01.87 10 6.74 6.74 0 012.84 1.2 6.73 6.73 0 0110 .87zm-1.73 1.1a4.98 4.98 0 00-6.56 4.7c-.02 1.09.39 2.12.96 3.01a9.6 9.6 0 0011.54 11.55c.55.32 1.11.64 1.73.8a4.97 4.97 0 006.21-5.44 5.8 5.8 0 00-.92-2.38A9.6 9.6 0 009.68 2.67c-.45-.27-.9-.55-1.41-.7z"/><path d="M10.47 5.14c1.62-.25 3.33 0 4.78.79.63.35 1.24.82 1.53 1.5.2.45.22 1.03-.14 1.4-.38.4-1 .52-1.52.35-.6-.24-.89-.87-1.4-1.24a3.46 3.46 0 00-2.28-.65c-.58.03-1.21.16-1.64.6-.4.41-.54 1.13-.15 1.6.36.42.92.58 1.43.72.98.25 1.97.44 2.96.68 1.02.23 2.05.68 2.73 1.51 1.16 1.5.9 3.9-.55 5.14-1.16 1.02-2.77 1.3-4.27 1.32-1.6-.03-3.31-.36-4.54-1.45-.62-.56-1.14-1.4-.96-2.26.2-.85 1.38-1.18 2.05-.65.5.4.78 1.03 1.27 1.45.59.54 1.4.75 2.19.74.76.02 1.58-.22 2.1-.8.36-.4.55-1 .32-1.5-.2-.47-.68-.73-1.15-.86-.86-.23-1.73-.43-2.6-.66-.94-.23-1.93-.44-2.74-1a2.96 2.96 0 01-1.28-1.84c-.26-1.18-.07-2.54.79-3.44a5.1 5.1 0 013.07-1.45z"/></svg>
