<svg xmlns="http://www.w3.org/2000/svg" width="16" height="16" viewBox="0 0 24 24">
<path d="M9,6.35295817 L9,20 C9,20.5522847 8.55228475,21 8,21 C7.44771525,21 7,20.5522847 7,20 L7,6.35295817 L5.64075448,7.71572875 C5.2654092,8.09475708 4.65685425,8.09475708 4.28150896,7.71572875 C3.90616368,7.33670042 3.90616368,6.72217408 4.28150896,6.34314575 L7.32037724,3.28427125 C7.69572253,2.90524292 8.30427747,2.90524292 8.67962276,3.28427125 L11.718491,6.34314575 C12.0938363,6.72217408 12.0938363,7.33670042 11.718491,7.71572875 C11.3431458,8.09475708 10.7345908,8.09475708 10.3592455,7.71572875 L9,6.35295817 Z M17,17.6470418 L18.3592455,16.2842712 C18.7345908,15.9052429 19.3431458,15.9052429 19.718491,16.2842712 C20.0938363,16.6632996 20.0938363,17.2778259 19.718491,17.6568542 L16.6796228,20.7157288 C16.3042775,21.0947571 15.6957225,21.0947571 15.3203772,20.7157288 L12.281509,17.6568542 C11.9061637,17.2778259 11.9061637,16.6632996 12.281509,16.2842712 C12.6568542,15.9052429 13.2654092,15.9052429 13.6407545,16.2842712 L15,17.6470418 L15,4 C15,3.44771525 15.4477153,3 16,3 C16.5522847,3 17,3.44771525 17,4 L17,17.6470418 Z"/>
</svg>