<svg xmlns="http://www.w3.org/2000/svg" width="16" height="16" viewBox="0 0 24 24"><path d="M7 17H6V8.932a4.099 4.099 0 0 1 1-.566V17zm3 0h1V7.776a5.576 5.576 0 0 0-.621.857L10 8.449V17zm-2 0h1V8.152c-.508-.079-.623-.05-1-.01V17zm-4 0h1V9.98a4.69 4.69 0 0 0-.692 1.535L4 11.333V17zm-3-5.25c-.606.547-1 1.354-1 2.268 0 .914.394 1.721 1 2.268V11.75zm18.879-.671C19.675 8.242 17.475 6 14.762 6A4.846 4.846 0 0 0 12 6.877V17h9.089C22.696 17 24 15.607 24 13.894c0-2.233-2.168-3.772-4.121-2.815zM3 11.052c-.302-.024-.526-.03-1 .122v5.689c.446.143.636.138 1 .138v-5.949z"/></svg>