<svg xmlns="http://www.w3.org/2000/svg" width="16" height="16" viewBox="0 0 24 24">
<path d="M20.9244142,3.07096535 C21.3262853,2.69212758 21.9591749,2.71079979 22.3380127,3.1126709 C22.7168505,3.51454201 22.6981783,4.1474316 22.2963072,4.52626937 L12.055947,14.9776547 C11.658833,15.352008 11.0349133,15.3388353 10.6539535,14.9480547 L7.28395346,11.4911797 C6.89842997,11.0957179 6.90648662,10.4626042 7.30194849,10.0770807 C7.69741036,9.69155719 8.33052408,9.69961384 8.71604756,10.0950757 L11.3996047,12.847812 L20.9244142,3.07096535 Z M21,17 C21,19.209139 19.209139,21 17,21 L10,21 L6,21 C3.790861,21 2,19.209139 2,17 L2,7 C2,4.790861 3.790861,3 6,3 L14,3 C14.5522847,3 15,3.44771525 15,4 C15,4.55228475 14.5522847,5 14,5 L6,5 C4.8954305,5 4,5.8954305 4,7 L4,17 C4,18.1045695 4.8954305,19 6,19 L10,19 L17,19 C18.1045695,19 19,18.1045695 19,17 L19,14 C19,13.4477153 19.4477153,13 20,13 C20.5522847,13 21,13.4477153 21,14 L21,17 Z"/>
</svg>