<svg xmlns="http://www.w3.org/2000/svg" width="16" height="16" viewBox="0 0 24 24"><path d="M14.533 11H7.995c-.764-.762-1.268-1.798-1.268-3.301C6.727 5.157 8.39 3 12.117 3c2.344 0 4.383.95 5.32 2.414.141.23.235.513.235.821 0 .745-.563 1.361-1.266 1.361-.328 0-.656-.205-1.008-.565-.726-.77-1.945-1.36-3.28-1.36-1.946 0-2.673 1-2.673 2.028 0 1.895 2.717 2.225 5.088 3.301zm3.154 3c.2.546.313 1.178.313 1.916C18 19.049 15.984 21 12.117 21c-2.789 0-5.015-1.515-5.93-3.133A1.48 1.48 0 0 1 6 17.148c0-.77.563-1.386 1.242-1.386.516 0 .797.308 1.031.565.985 1.078 2.227 1.951 3.844 1.951 2.133 0 3.164-.77 3.164-2.362 0-.885-.476-1.465-1.204-1.916h3.61zM3 11h18a1 1 0 0 1 0 2H3a1 1 0 0 1 0-2z"/></svg>