<svg xmlns="http://www.w3.org/2000/svg" width="16" height="16" viewBox="0 0 24 24">
<path d="M2,12.8994949 L2,3 C2,2.44771525 2.44771525,2 3,2 L12.8994949,2 C13.1647114,2 13.4190653,2.10535684 13.6066017,2.29289322 L22.7989899,11.4852814 C23.9705627,12.6568542 23.9705627,14.5563492 22.7989899,15.7279221 L15.7279221,22.7989899 C14.5563492,23.9705627 12.6568542,23.9705627 11.4852814,22.7989899 L2.29289322,13.6066017 C2.10535684,13.4190653 2,13.1647114 2,12.8994949 Z M7.24264069,10.7781746 C8.21895142,11.7544853 9.80186386,11.7544853 10.7781746,10.7781746 C11.7544853,9.80186386 11.7544853,8.21895142 10.7781746,7.24264069 C9.80186386,6.26632996 8.21895142,6.26632996 7.24264069,7.24264069 C6.26632996,8.21895142 6.26632996,9.80186386 7.24264069,10.7781746 Z"/>
</svg>