<svg xmlns="http://www.w3.org/2000/svg" width="16" height="16" viewBox="0 0 24 24">
<path d="M2,12.8994949 L2,3 C2,2.44771525 2.44771525,2 3,2 L12.8994949,2 C13.1647114,2 13.4190653,2.10535684 13.6066017,2.29289322 L22.7989899,11.4852814 C23.9705627,12.6568542 23.9705627,14.5563492 22.7989899,15.7279221 L15.7279221,22.7989899 C14.5563492,23.9705627 12.6568542,23.9705627 11.4852814,22.7989899 L2.29289322,13.6066017 C2.10535684,13.4190653 2,13.1647114 2,12.8994949 Z M12.4852814,4 L4,4 L4,12.4852814 L12.8845406,21.3698219 C13.2833239,21.7686053 13.9231842,21.7753006 14.3137085,21.3847763 L21.3847763,14.3137085 C21.7753006,13.9231842 21.7686053,13.2833239 21.3698219,12.8845406 L12.4852814,4 Z M7.24264069,11.4852814 C6.07106781,10.3137085 6.07106781,8.41421356 7.24264069,7.24264069 C8.41421356,6.07106781 10.3137085,6.07106781 11.4852814,7.24264069 C12.6568542,8.41421356 12.6568542,10.3137085 11.4852814,11.4852814 C10.3137085,12.6568542 8.41421356,12.6568542 7.24264069,11.4852814 Z M8.65685425,10.0710678 C9.04737854,10.4615921 9.68054352,10.4615921 10.0710678,10.0710678 C10.4615921,9.68054352 10.4615921,9.04737854 10.0710678,8.65685425 C9.68054352,8.26632996 9.04737854,8.26632996 8.65685425,8.65685425 C8.26632996,9.04737854 8.26632996,9.68054352 8.65685425,10.0710678 Z"/>
</svg>