<svg xmlns="http://www.w3.org/2000/svg" width="16" height="16" viewBox="0 0 24 24">
<path d="M3.5,7.29197816 C2.61704761,6.90619985 2,6.02515952 2,5 C2,3.97484048 2.61704761,3.09380015 3.5,2.70802184 L3.5,2 C3.5,1.44771525 3.94771525,1 4.5,1 C5.05228475,1 5.5,1.44771525 5.5,2 L5.5,2.70802184 C6.38295239,3.09380015 7,3.97484048 7,5 C7,6.02515952 6.38295239,6.90619985 5.5,7.29197816 L5.5,9.70802184 C6.38295239,10.0938002 7,10.9748405 7,12 C7,13.0251595 6.38295239,13.9061998 5.5,14.2919782 L5.5,16.7080218 C6.38295239,17.0938002 7,17.9748405 7,19 C7,20.0251595 6.38295239,20.9061998 5.5,21.2919782 L5.5,22 C5.5,22.5522847 5.05228475,23 4.5,23 C3.94771525,23 3.5,22.5522847 3.5,22 L3.5,21.2919782 C2.61704761,20.9061998 2,20.0251595 2,19 C2,17.9748405 2.61704761,17.0938002 3.5,16.7080218 L3.5,14.2919782 C2.61704761,13.9061998 2,13.0251595 2,12 C2,10.9748405 2.61704761,10.0938002 3.5,9.70802184 L3.5,7.29197816 Z M4.5,20 C5.05228475,20 5.5,19.5522847 5.5,19 C5.5,18.4477153 5.05228475,18 4.5,18 C3.94771525,18 3.5,18.4477153 3.5,19 C3.5,19.5522847 3.94771525,20 4.5,20 Z M4.5,13 C5.05228475,13 5.5,12.5522847 5.5,12 C5.5,11.4477153 5.05228475,11 4.5,11 C3.94771525,11 3.5,11.4477153 3.5,12 C3.5,12.5522847 3.94771525,13 4.5,13 Z M4.5,6 C5.05228475,6 5.5,5.55228475 5.5,5 C5.5,4.44771525 5.05228475,4 4.5,4 C3.94771525,4 3.5,4.44771525 3.5,5 C3.5,5.55228475 3.94771525,6 4.5,6 Z M10,11 L21,11 C21.5522847,11 22,11.4477153 22,12 C22,12.5522847 21.5522847,13 21,13 L10,13 C9.44771525,13 9,12.5522847 9,12 C9,11.4477153 9.44771525,11 10,11 Z M10,18 L21,18 C21.5522847,18 22,18.4477153 22,19 C22,19.5522847 21.5522847,20 21,20 L10,20 C9.44771525,20 9,19.5522847 9,19 C9,18.4477153 9.44771525,18 10,18 Z M10,4 L21,4 C21.5522847,4 22,4.44771525 22,5 C22,5.55228475 21.5522847,6 21,6 L10,6 C9.44771525,6 9,5.55228475 9,5 C9,4.44771525 9.44771525,4 10,4 Z"/>
</svg>