<svg xmlns="http://www.w3.org/2000/svg" width="16" height="16" viewBox="0 0 24 24"><path d="M18.474 6.738c.375 0 .662.302.677.69a.679.679 0 0 1-.677.692H5.568a.703.703 0 0 1-.705-.691c0-.389.317-.691.705-.691h12.906zm-5.079 2.505h5.08c.388 0 .676.317.676.705a.667.667 0 0 1-.677.677H14.1v8.206a.697.697 0 0 1-.705.706.694.694 0 0 1-.69-.706V9.948c0-.388.316-.705.69-.705zm-12.36 7.573A11.745 11.745 0 0 1 0 11.978a12.01 12.01 0 0 1 3.237-8.235A11.89 11.89 0 0 1 10.877 0c.23 0 .46.115.59.346a.669.669 0 0 1-.259.92c-.057.044-.115.059-.172.073a10.577 10.577 0 0 0-6.82 3.34 10.655 10.655 0 0 0-2.878 7.3c0 1.44.302 2.85.892 4.218a.656.656 0 0 1 .072.288.676.676 0 0 1-.676.676.65.65 0 0 1-.59-.345zM20.778 3.772a11.773 11.773 0 0 1 3.222 8.192c0 1.742-.33 3.369-.978 4.852a.678.678 0 0 1-.59.345.732.732 0 0 1-.316-.072l-.015-.014a.678.678 0 0 1-.345-.59c0-.101.029-.202.072-.288.561-1.325.849-2.736.849-4.233 0-2.707-1.022-5.284-2.863-7.27a10.732 10.732 0 0 0-6.734-3.355.614.614 0 0 1-.475-.317.703.703 0 0 1 .273-.936.734.734 0 0 1 .288-.086 12.062 12.062 0 0 1 7.612 3.772zm-10.173 15.75a.716.716 0 0 1-.705-.705v-8.206H5.554c-.403 0-.705-.303-.705-.677 0-.403.316-.705.705-.705h5.05c.403 0 .705.316.705.705v8.883a.697.697 0 0 1-.705.705zm10.72-1.67a.65.65 0 0 1 .661.691.673.673 0 0 1-.043.245 11.98 11.98 0 0 1-9.9 5.212c-3.956 0-7.625-1.944-9.884-5.197a.931.931 0 0 1-.057-.288c0-.375.287-.677.662-.677.215 0 .417.115.546.274a10.67 10.67 0 0 0 17.467.014.662.662 0 0 1 .547-.274z"/></svg>