<svg width="16" height="16" viewBox="0 0 24 24" xmlns="http://www.w3.org/2000/svg"><path d="M19.17 18.235a.461.461 0 0 0-.473.02c-1.072.705-2.16 1.063-3.232 1.063-.576 0-1.071-.129-1.515-.395-.302-.178-.583-.49-.683-.762-.098-.259-.097-.954-.095-1.916V10.38h4.874a.462.462 0 0 0 .461-.462v-4.12a.462.462 0 0 0-.461-.462h-4.874V.462A.462.462 0 0 0 12.711 0H9.428a.462.462 0 0 0-.458.406c-.138 1.129-.393 2.066-.762 2.787-.359.711-.845 1.33-1.444 1.84-.48.41-1.304.806-2.446 1.178A.461.461 0 0 0 4 6.65v3.269c0 .254.207.461.462.461h2.672v7.63c0 1.125.12 1.971.365 2.588.25.626.694 1.216 1.32 1.753.616.528 1.365.94 2.23 1.227.838.274 1.506.422 2.632.422.952 0 1.859-.099 2.696-.293.824-.193 1.756-.532 2.77-1.01a.461.461 0 0 0 .265-.417V18.64a.462.462 0 0 0-.242-.406Z"/></svg>