<svg xmlns="http://www.w3.org/2000/svg" width="16" height="16" viewBox="0 0 24 24"><path d="M3.957 22.332c0-1.279 1.73-7.117 6.723-12.952 3.328-3.89 6.97-6.535 10.925-7.936-.11.926-.458 1.715-1.042 2.367-.876.978-2.796 1.475-3.322 2.265 1.334-.03 2.184.121 3.143-.481-.389 1.186-.855 2.09-1.887 2.797-1.031.708-3.244.63-3.63 1.852 1.592-.143 2.314.015 2.997-.154-1.093 1.312-2.528 2.346-3.749 2.64-1.22.294-2.222.273-3.435 1.16-1.213.889-5.504 7.387-6.723 8.442zM5 5v7a1 1 0 0 1-2 0V4a1 1 0 0 1 1-1h6a1 1 0 0 1 0 2H5zm14 13v-5a1 1 0 0 1 2 0v6a1 1 0 0 1-1 1h-8a1 1 0 0 1 0-2h7z"/></svg>