<svg xmlns="http://www.w3.org/2000/svg" width="16" height="16" viewBox="0 0 24 24">
<path d="M15.0345556,2.23420469 C12.8671366,3.02288369 11.4974999,5.05706312 11.653084,7.28323996 L11.7052213,8.14226285 L10.8379226,8.03716082 C7.68237903,7.63413178 4.92489902,6.26697782 2.58368925,3.96962953 L1.43915298,2.83005871 L1.14453627,3.67170252 C0.520544696,5.54781512 0.919435862,7.52902975 2.21955624,8.86142555 C2.91306412,9.59796733 2.75665244,9.70306936 1.56080651,9.26445459 C1.14453627,9.12459441 0.780403256,9.01949238 0.745645105,9.07162961 C0.62481915,9.19493829 1.04026182,10.7896754 1.36963668,11.4211151 C1.82066507,12.2983447 2.73927336,13.15654 3.7456046,13.6654986 L4.59552416,14.0685277 L3.59002049,14.0859067 C2.61927498,14.0859067 2.58451683,14.1032858 2.68879128,14.4723843 C3.03554522,15.6119551 4.4051819,16.8218698 5.93123026,17.3482075 L7.00625023,17.7156508 L6.07026287,18.2767467 C4.68324711,19.0844599 3.0529243,19.5396262 1.42260148,19.5735568 C0.641370651,19.5909359 0,19.6612797 0,19.7142445 C0,19.8888629 2.11610936,20.8703669 3.34671343,21.2568444 C7.04018081,22.3964152 11.4279836,21.9048357 14.7225598,19.9592068 C17.0637696,18.5738461 19.4041518,15.8213316 20.4973784,13.1557124 C21.0874394,11.7364212 21.6766728,9.14114591 21.6766728,7.89730064 C21.6766728,7.09041498 21.7288101,6.98531295 22.6995556,6.02118804 C23.2722375,5.46009217 23.8093337,4.84685907 23.9136082,4.67141316 C24.0873989,4.33790042 24.0691923,4.33790042 23.1853421,4.63582743 C21.711431,5.16216515 21.5028821,5.09182128 22.2319757,4.30314227 C22.7690719,3.7420464 23.4112701,2.72495668 23.4112701,2.42702967 C23.4112701,2.37489244 23.1514116,2.46178782 22.8559673,2.61985465 C22.5439715,2.79530056 21.8504636,3.05846942 21.3299189,3.21570868 L20.3939315,3.51446326 L19.544012,2.93516074 C19.0756045,2.61985465 18.4176824,2.26896284 18.0701009,2.16386081 C17.1854231,1.9188986 15.832338,1.95365675 15.0345556,2.23420469 Z"/>
</svg>