<svg xmlns="http://www.w3.org/2000/svg" width="16" height="16" viewBox="0 0 24 24"><path d="M6 1h12a3 3 0 0 1 3 3v16a3 3 0 0 1-3 3H6a3 3 0 0 1-3-3V4a3 3 0 0 1 3-3zm0 2a1 1 0 0 0-1 1v16a1 1 0 0 0 1 1h12a1 1 0 0 0 1-1V4a1 1 0 0 0-1-1H6zm2 6.344c0-.507.163-1.02.488-1.54.325-.52.8-.95 1.424-1.292.624-.341 1.352-.512 2.184-.512.773 0 1.456.143 2.048.428.592.285 1.05.673 1.372 1.164.323.49.484 1.024.484 1.6 0 .453-.092.85-.276 1.192a3.649 3.649 0 0 1-.656.884 47.89 47.89 0 0 1-1.364 1.252c-.181.165-.327.31-.436.436-.11.125-.19.24-.244.344a1.679 1.679 0 0 0-.124.312c-.03.104-.073.287-.132.548-.101.555-.419.832-.952.832a.973.973 0 0 1-.7-.272c-.19-.181-.284-.45-.284-.808 0-.448.07-.836.208-1.164.139-.328.323-.616.552-.864.23-.248.539-.543.928-.884.341-.299.588-.524.74-.676.152-.152.28-.321.384-.508.104-.187.156-.39.156-.608 0-.427-.159-.787-.476-1.08-.317-.293-.727-.44-1.228-.44-.587 0-1.019.148-1.296.444-.277.296-.512.732-.704 1.308-.181.603-.525.904-1.032.904-.299 0-.55-.105-.756-.316C8.103 9.818 8 9.589 8 9.344zm3.904 8.768c-.325 0-.61-.105-.852-.316-.243-.21-.364-.505-.364-.884 0-.336.117-.619.352-.848.235-.23.523-.344.864-.344.336 0 .619.115.848.344.23.23.344.512.344.848 0 .373-.12.667-.36.88-.24.213-.517.32-.832.32z"/></svg>