<svg xmlns="http://www.w3.org/2000/svg" width="16" height="16" viewBox="0 0 24 24"><path d="M10.941 15.04a1 1 0 1 1 1.955-.422 4.586 4.586 0 0 1-1.24 4.217l-2.82 2.82a4.59 4.59 0 0 1-6.492-6.49l2.82-2.82A4.585 4.585 0 0 1 9.2 11.067a1 1 0 0 1-.343 1.97 2.585 2.585 0 0 0-2.278.72l-2.82 2.82a2.59 2.59 0 1 0 3.662 3.663l2.82-2.82c.63-.63.885-1.525.7-2.38zm2.1-6.17a1 1 0 0 1-1.969.352 4.585 4.585 0 0 1 1.273-4.058l2.82-2.82a4.59 4.59 0 0 1 6.49 6.491l-2.82 2.82a4.586 4.586 0 0 1-4.197 1.245 1 1 0 1 1 .413-1.957 2.586 2.586 0 0 0 2.37-.702l2.82-2.82a2.59 2.59 0 1 0-3.662-3.663l-2.82 2.82a2.585 2.585 0 0 0-.718 2.292zm-5.01-1.9A.75.75 0 0 1 6.97 8.03l-2-2a.75.75 0 0 1 1.06-1.06l2 2zm2.219-.47a.75.75 0 0 1-1.5 0v-3a.75.75 0 0 1 1.5 0v3zM6.5 8.75a.75.75 0 0 1 0 1.5h-3a.75.75 0 0 1 0-1.5h3zm9.47 8.28a.75.75 0 0 1 1.06-1.06l2 2a.75.75 0 0 1-1.06 1.06l-2-2zm-2.22.47a.75.75 0 1 1 1.5 0v3a.75.75 0 1 1-1.5 0v-3zm3.75-2.25a.75.75 0 1 1 0-1.5h3a.75.75 0 1 1 0 1.5h-3z"/></svg>