<svg xmlns="http://www.w3.org/2000/svg" width="16" height="16" viewBox="0 0 24 24"><path d="M12.053 13c-3.86 0-7-2.916-7-6.5s3.14-6.5 7-6.5 7 2.916 7 6.5-3.14 6.5-7 6.5zM12 2C9.243 2 7 4.019 7 6.5S9.243 11 12 11s5-2.019 5-4.5S14.757 2 12 2zm10.105 22H1.895A1.887 1.887 0 0 1 0 22.125C0 22.04.018 20.019 1.547 18c.89-1.175 2.11-2.109 3.624-2.774C7.021 14.412 9.318 14 12 14c2.682 0 4.98.412 6.829 1.226 1.514.666 2.733 1.599 3.624 2.774C23.983 20.019 24 22.04 24 22.125 24 23.159 23.15 24 22.105 24zM12 16c-4.102 0-7.13.953-8.754 2.756C2.028 20.107 2 21.488 2 21.502c.001.275.264.498.588.498h18.824c.325 0 .588-.224.588-.5 0-.012-.027-1.393-1.246-2.744C19.128 16.953 16.101 16 12 16z"/></svg>