<svg xmlns="http://www.w3.org/2000/svg" width="16" height="16" viewBox="0 0 24 24"><path d="M14 3c3.287 0 6 2.442 6 5.5S17.287 14 14 14s-6-2.442-6-5.5S10.713 3 14 3zm0 2c-2.227 0-4 1.596-4 3.5s1.773 3.5 4 3.5c2.227 0 4-1.596 4-3.5S16.227 5 14 5zm.5 10c3.38 0 5.967 1.085 7.394 3.196C22.709 19.4 23 20.659 23 21.5c0 .803-.615 1.5-1.441 1.5H7.44c-.823 0-1.438-.694-1.439-1.56.026-.419.04-.554.14-.996.164-.73.452-1.46.895-2.144l.069-.104C8.532 16.086 11.118 15 14.5 15zm6.401 5.856a4.585 4.585 0 0 0-.664-1.54C19.226 17.821 17.271 17 14.5 17c-2.772 0-4.726.82-5.737 2.316l-.047.07A4.611 4.611 0 0 0 8.067 21h12.866a5.02 5.02 0 0 0-.032-.144zM4.905 18h-2.59c-.752 0-1.312-.632-1.313-1.422a4.19 4.19 0 0 1 .12-.852c.14-.624.386-1.248.766-1.834l.059-.089C2.91 12.377 4.49 11.5 6.53 11.195a7.33 7.33 0 0 0 1.053 1.787c-1.946.12-3.326.776-4.072 1.88l-.038.057a3.762 3.762 0 0 0-.502 1.192h3.237c-.275.3-.53.622-.761.965l-.046.069c-.02.029-.02.029-.04.062a8.517 8.517 0 0 0-.456.793zm5.657-16.273A8.089 8.089 0 0 0 8.595 2.97a3.703 3.703 0 0 0-.774-.081c-1.813 0-3.253 1.295-3.253 2.833 0 .968.57 1.84 1.445 2.353a7.203 7.203 0 0 0 .194 2.131c-2.038-.62-3.528-2.381-3.528-4.484C2.68 3.094 5.006 1 7.821 1a5.46 5.46 0 0 1 2.74.727z"/></svg>