<svg xmlns="http://www.w3.org/2000/svg" width="16" height="16" viewBox="0 0 24 24"><path d="M8 2L2 7.692v8.319L8 22h8.32L22 16.01V7.693L16.32 2H8zM6.625.549A2 2 0 0 1 8.001 0h8.319a2 2 0 0 1 1.415.587l5.68 5.692A2 2 0 0 1 24 7.692v8.319a2 2 0 0 1-.549 1.376l-5.68 5.99A2 2 0 0 1 16.32 24H8a2 2 0 0 1-1.412-.584l-6-5.99A2 2 0 0 1 0 16.011V7.69a2 2 0 0 1 .624-1.45l6-5.692z"/><path d="M12 16.5a1.5 1.5 0 1 1 0 3 1.5 1.5 0 0 1 0-3zm0-12A1.5 1.5 0 0 1 13.5 6v7a1.5 1.5 0 0 1-3 0V6A1.5 1.5 0 0 1 12 4.5z"/></svg>