<svg xmlns="http://www.w3.org/2000/svg" width="16" height="16" viewBox="0 0 24 24"><title>Weight</title><path d="M20 0a4 4 0 014 4v16a4 4 0 01-4 4H4a4 4 0 01-4-4V4a4 4 0 014-4h16zm0 2H4a2 2 0 00-2 2v16c0 1.1.9 2 2 2h16a2 2 0 002-2V4a2 2 0 00-2-2zM8.98 4.26c3.52-.54 7.15-.1 10.49 1.3l.43.2.66.3-2.2 5.34-.71-.33c-1.14-.53-3-.95-5.58-1.24h-.27l-.43.05a19.6 19.6 0 00-4.66.98l-.2.08-.69.3-2.31-5.29.68-.3a19.32 19.32 0 014.76-1.38h.03zm2.52 1.28c-.6.02-1.2.06-1.8.14l.07.48a.5.5 0 01-.97.25l-.02-.1-.08-.48c-.37.07-.75.15-1.12.25l.16.58A.5.5 0 016.8 7l-.03-.08-.15-.57-.5.16-.5.18-.13.05L6.6 9.3l.29-.1c.91-.27 2.04-.5 3.4-.7l.46-.06.44-.05.3-.04v-.6a.5.5 0 111 0v.62c1.84.22 3.34.5 4.52.87l.28.09.25.09 1.06-2.58-.15-.06c-.36-.15-.72-.28-1.09-.4l-.14.54a.5.5 0 01-.97-.26l.15-.55c-.42-.11-.84-.2-1.27-.28l-.07.49a.5.5 0 01-1-.16l.09-.48c-.55-.07-1.1-.12-1.66-.13v.7a.5.5 0 11-1 0v-.7zm.5 8.06a.8.8 0 100-1.6.8.8 0 000 1.6zm0 3a.8.8 0 100-1.6.8.8 0 000 1.6zm0 3a.8.8 0 100-1.6.8.8 0 000 1.6z"/></svg>
